<?xml version="1.0" standalone="no"?>
<!DOCTYPE svg PUBLIC "-//W3C//DTD SVG 20010904//EN"
 "http://www.w3.org/TR/2001/REC-SVG-20010904/DTD/svg10.dtd">
<svg version="1.0" xmlns="http://www.w3.org/2000/svg"
 width="1102.000000pt" height="768.000000pt" viewBox="0 0 1102.000000 768.000000"
 preserveAspectRatio="xMidYMid meet">

<g transform="translate(0.000000,768.000000) scale(0.100000,-0.100000)"
fill="#000000" stroke="none">
<path d="M1720 7360 c0 -5 5 -10 11 -10 5 0 7 5 4 10 -3 6 -8 10 -11 10 -2 0
-4 -4 -4 -10z"/>
<path d="M1570 7291 c0 -6 5 -13 10 -16 6 -3 10 1 10 9 0 9 -4 16 -10 16 -5 0
-10 -4 -10 -9z"/>
<path d="M1595 7160 c3 -5 8 -10 11 -10 2 0 4 5 4 10 0 6 -5 10 -11 10 -5 0
-7 -4 -4 -10z"/>
<path d="M1460 7120 c0 -5 5 -10 10 -10 6 0 10 5 10 10 0 6 -4 10 -10 10 -5 0
-10 -4 -10 -10z"/>
<path d="M1690 7096 c0 -9 5 -16 10 -16 6 0 10 4 10 9 0 6 -4 13 -10 16 -5 3
-10 -1 -10 -9z"/>
<path d="M7825 7031 c-51 -13 -120 -59 -172 -114 -72 -76 -107 -172 -107 -294
-1 -50 -4 -95 -8 -99 -5 -4 -8 -18 -8 -31 l0 -24 30 23 c21 15 30 30 30 51 0
36 16 67 36 67 8 0 19 11 24 24 5 14 18 30 29 35 34 19 153 40 175 31 12 -4
53 -11 91 -15 39 -4 73 -12 76 -17 6 -9 31 -14 96 -17 12 -1 35 -14 51 -31 37
-37 50 -39 27 -4 -9 15 -12 23 -5 19 15 -10 -3 27 -25 48 -12 13 -13 16 0 21
8 3 17 1 20 -4 4 -6 11 -10 16 -10 6 0 7 5 4 10 -3 6 -2 10 4 10 11 0 9 19 -3
38 -7 11 -4 12 13 3 25 -14 27 -4 6 25 -8 12 -12 24 -8 27 3 4 0 13 -6 21 -10
12 -8 13 11 9 23 -6 23 -6 4 15 -11 12 -16 22 -11 22 4 0 -4 9 -19 21 -14 11
-26 26 -26 33 0 20 -32 43 -70 51 -19 5 -30 10 -23 12 8 3 5 11 -8 24 -16 16
-37 20 -117 24 -53 2 -111 1 -127 -4z"/>
<path d="M7702 6532 c-20 -6 -16 -10 30 -26 30 -11 46 -21 37 -23 -10 -3 -20
-18 -23 -39 -7 -35 -32 -47 -42 -19 -8 20 -24 19 -24 -1 0 -23 62 -89 86 -91
23 -2 92 43 98 66 3 9 2 32 -2 51 -6 27 -17 40 -47 57 -48 26 -82 34 -113 25z"/>
<path d="M7694 6464 c-18 -14 -18 -15 4 -4 12 6 22 13 22 15 0 8 -5 6 -26 -11z"/>
<path d="M7984 6456 c-10 -8 -17 -16 -14 -19 9 -8 122 11 133 22 17 17 -95 14
-119 -3z"/>
<path d="M7982 6417 c-18 -7 -37 -19 -42 -27 -13 -20 -13 -60 0 -60 5 0 9 -15
8 -32 -1 -18 2 -41 7 -52 5 -12 3 -27 -5 -40 -12 -19 -11 -20 2 -8 13 10 17
10 22 -4 4 -9 9 -14 13 -11 3 4 0 13 -7 22 -15 18 -6 63 12 62 53 -2 67 5 87
39 26 44 26 51 -1 50 -24 -1 -26 8 -12 52 6 19 3 22 -22 21 -16 0 -44 -6 -62
-12z"/>
<path d="M7767 6255 c-15 -19 -27 -36 -25 -37 1 -2 -11 -26 -27 -55 -28 -49
-28 -88 -1 -50 16 21 49 22 66 2 10 -12 10 -15 0 -15 -9 0 -8 -6 4 -19 13 -15
14 -20 4 -24 -8 -4 -9 -8 -3 -14 6 -4 10 -19 10 -33 0 -37 46 -40 69 -5 18 28
14 45 -12 46 -14 0 -14 2 -2 6 8 3 28 17 43 29 35 29 44 30 66 3 l18 -22 23
32 c12 18 19 36 14 41 -5 4 -31 1 -59 -7 -95 -28 -116 -27 -168 6 -42 28 -46
33 -37 52 6 11 19 23 28 27 9 4 18 14 18 22 1 8 5 23 9 33 12 28 -8 19 -38
-18z"/>
<path d="M8140 6227 c0 -15 3 -27 8 -27 4 0 17 -3 29 -6 18 -5 21 -3 16 16 -4
14 -8 18 -13 10 -5 -8 -12 -5 -24 11 l-16 23 0 -27z"/>
<path d="M7832 6180 c2 -7 -8 -16 -22 -20 -32 -8 -18 -16 43 -25 48 -7 59 1
39 32 -11 17 -64 29 -60 13z"/>
<path d="M7624 6088 c-10 -45 -7 -87 11 -188 24 -129 38 -160 78 -160 19 0 15
8 -26 49 -14 14 -18 40 -22 127 -7 176 -24 247 -41 172z"/>
<path d="M8151 6049 c-14 -41 -28 -78 -31 -84 -4 -5 -13 -26 -20 -45 -18 -47
-70 -126 -117 -176 -94 -101 -125 -144 -109 -150 9 -3 23 -4 31 0 17 6 22 -29
5 -39 -16 -10 -129 16 -126 29 2 6 1 8 -1 4 -8 -14 -31 -8 -37 9 -5 13 -9 14
-15 5 -5 -9 -17 -7 -46 8 -22 11 -46 20 -55 20 -9 0 -21 5 -28 12 -6 6 -15 8
-19 3 -5 -4 -2 -10 5 -12 6 -3 12 -12 12 -20 0 -12 3 -13 13 -5 10 9 13 3 15
-26 1 -20 5 -58 8 -84 5 -44 3 -50 -24 -75 -62 -59 -86 -78 -92 -76 -7 2 -6
-53 0 -67 1 -3 2 -8 1 -12 0 -5 3 -8 8 -8 5 0 12 -7 15 -16 5 -14 4 -15 -9 -4
-8 7 -15 9 -15 4 0 -5 -11 5 -24 21 l-25 30 3 -95 c3 -89 12 -151 39 -245 6
-22 10 -48 9 -57 -2 -22 7 -23 36 -2 12 8 22 24 22 35 0 10 5 19 10 19 13 0
13 -12 -1 -47 -8 -21 -7 -38 2 -65 10 -30 10 -47 0 -80 -17 -55 -21 -108 -8
-108 5 0 -2 -11 -17 -25 -26 -24 -34 -59 -17 -70 8 -5 44 -98 46 -117 0 -15
22 -27 55 -30 30 -3 35 -7 43 -38 11 -45 13 -258 3 -333 l-7 -57 28 12 c15 7
29 13 31 14 1 0 18 59 38 130 19 71 37 135 40 143 3 11 11 8 30 -10 14 -13 27
-23 30 -21 2 1 10 2 17 2 9 0 9 -2 0 -8 -13 -8 -35 -70 -53 -152 -7 -30 -23
-86 -35 -125 -13 -38 -26 -86 -30 -105 l-8 -35 58 60 c35 36 60 55 63 47 5
-16 -6 -47 -15 -39 -3 4 -17 -8 -30 -26 -13 -17 -38 -39 -55 -47 -17 -8 -33
-21 -36 -28 -3 -11 3 -10 26 2 17 9 46 16 64 16 31 0 29 -3 -32 -33 -71 -35
-66 -23 -69 -144 -1 -40 -5 -53 -16 -53 -8 0 -15 6 -15 12 0 7 -7 2 -16 -10
-8 -12 -24 -22 -35 -22 -19 0 -22 -21 -7 -46 4 -6 -1 -26 -11 -45 -10 -19 -21
-56 -24 -82 -7 -50 -47 -112 -63 -99 -5 4 -2 -1 5 -11 8 -10 25 -16 42 -15 25
2 32 11 59 70 16 38 30 73 30 79 0 5 5 7 11 3 8 -5 9 -42 5 -123 -6 -113 -6
-115 11 -88 10 15 21 27 25 27 8 0 13 -75 9 -141 -2 -25 2 -38 13 -42 23 -9
37 16 43 78 5 47 3 58 -13 70 -18 14 -17 14 9 15 25 0 27 3 21 23 -4 12 -11
25 -17 28 -5 4 -2 11 8 16 17 10 16 12 -3 31 -12 12 -19 28 -16 37 4 8 1 22
-6 30 -10 12 -9 15 3 15 10 0 14 6 11 14 -3 8 -1 23 4 33 7 13 6 26 -4 43 -20
36 -18 53 6 47 29 -7 25 7 -11 37 -28 24 -30 29 -21 56 8 21 7 30 -1 33 -7 2
3 7 21 11 23 6 32 12 28 22 -4 9 4 19 21 27 23 10 28 9 41 -11 l15 -23 18 27
c13 21 15 32 8 47 -11 20 6 110 26 137 6 8 16 27 23 43 29 66 36 76 46 70 6
-4 5 1 -3 10 -11 15 -11 17 2 17 19 0 29 24 14 39 -8 8 -6 11 7 11 9 0 14 4
11 10 -3 5 1 20 10 33 8 13 12 27 8 30 -3 4 -1 7 6 7 7 0 11 6 8 14 -4 9 3 17
16 21 21 6 21 7 3 14 -16 6 -17 8 -4 13 18 8 80 117 98 173 7 22 16 44 21 49
5 6 9 16 9 24 0 7 9 33 20 57 11 24 35 113 54 197 19 89 46 182 65 223 39 86
61 184 61 276 0 62 -2 70 -17 65 -10 -2 -52 -10 -93 -17 -41 -7 -65 -15 -52
-17 17 -3 22 -8 17 -20 -4 -9 -9 -33 -12 -52 -2 -19 -6 -41 -8 -47 -3 -7 0
-13 5 -13 5 0 7 -6 5 -12 -16 -49 -32 -198 -25 -241 3 -23 4 -85 3 -137 -2
-52 -4 -105 -4 -116 1 -12 -6 -27 -14 -34 -8 -7 -15 -20 -15 -29 -1 -9 -16
-43 -35 -76 -18 -33 -50 -91 -69 -130 -52 -103 -55 -106 -116 -104 -28 1 -54
7 -56 13 -2 6 23 94 56 196 66 200 106 353 114 440 3 30 8 73 11 95 l5 40 -55
26 -55 26 -1 -31 c-1 -17 -7 7 -15 54 -15 97 -17 141 -4 100 7 -21 8 -17 9 20
1 25 12 78 26 118 14 41 27 100 29 133 3 32 8 63 11 69 3 5 8 64 11 132 5 113
10 145 34 203 5 11 11 31 13 45 3 14 12 53 21 88 10 34 16 74 14 89 -2 19 -9
7 -27 -48z m-154 -986 c-3 -10 -5 -2 -5 17 0 19 2 27 5 18 2 -10 2 -26 0 -35z
m40 -106 c22 -24 29 -13 9 15 -9 12 -16 27 -16 33 0 5 11 -8 24 -30 13 -21 32
-43 42 -47 13 -6 9 -6 -11 -3 -41 8 -73 43 -80 85 l-5 35 11 -35 c6 -19 18
-43 26 -53z m-387 -17 c0 8 19 -7 43 -34 38 -45 43 -56 47 -113 3 -35 2 -63
-1 -63 -13 0 -59 99 -53 114 3 8 -3 27 -15 42 -12 15 -21 23 -21 18 0 -5 -5
-2 -10 6 -5 8 -10 22 -10 30 0 13 1 13 10 0 9 -13 10 -13 10 0z m-49 -413
c-10 -9 -11 -8 -5 6 3 10 9 15 12 12 3 -3 0 -11 -7 -18z m335 -436 c-4 -5 -21
-20 -39 -32 l-32 -22 34 36 c31 33 52 44 37 18z m-19 -118 c-9 -9 -20 -13 -24
-9 -4 4 -1 11 7 16 25 16 35 11 17 -7z m-141 -600 c-3 -4 -2 -11 3 -17 4 -6 5
-36 1 -66 -5 -41 -8 -46 -9 -20 -1 19 -4 60 -7 90 -4 44 -3 51 6 37 7 -10 9
-21 6 -24z"/>
<path d="M7947 6016 c-37 -29 -54 -47 -46 -51 8 -6 7 -10 -5 -17 -9 -5 -14
-13 -11 -18 3 -4 -2 -26 -10 -49 -8 -23 -13 -41 -11 -41 8 0 87 110 116 163
17 31 30 57 28 57 -1 0 -29 -20 -61 -44z"/>
<path d="M5695 6020 c3 -5 1 -10 -4 -10 -12 0 -15 -99 -3 -116 4 -6 14 -13 23
-16 10 -4 19 -22 22 -45 3 -21 10 -57 17 -81 10 -32 10 -45 1 -56 -10 -12 -16
-11 -36 9 -27 24 -31 45 -14 62 12 12 22 80 13 94 -9 15 -32 -2 -44 -32 -7
-16 -20 -33 -29 -38 -14 -9 -14 -11 2 -28 19 -21 25 -129 7 -118 -5 3 -9 18
-9 33 4 71 8 68 -126 111 -89 28 -132 38 -148 32 -22 -8 -22 -8 3 -15 49 -15
110 -41 110 -48 0 -5 -42 -8 -92 -8 -56 0 -88 -4 -79 -9 15 -10 207 -8 217 2
4 4 3 7 -3 7 -6 0 -14 7 -17 16 -3 9 11 2 35 -17 47 -37 58 -57 38 -70 -11 -7
-9 -9 8 -9 12 0 31 -12 43 -27 21 -26 21 -28 3 -31 -32 -7 -35 -19 -5 -25 27
-5 29 -9 30 -54 0 -26 8 -65 16 -85 10 -23 16 -67 16 -113 0 -66 2 -75 18 -75
27 0 45 43 24 56 -13 9 -14 18 -5 64 9 43 8 56 -3 67 -7 8 -11 20 -7 29 4 10
-2 17 -15 21 -14 3 -19 10 -15 21 5 11 3 13 -7 7 -20 -12 -3 47 18 63 21 16
54 12 60 -7 3 -8 0 -11 -6 -7 -7 4 -9 -4 -7 -21 2 -16 4 -43 4 -62 1 -40 14
-34 16 7 1 15 7 40 14 55 6 16 11 32 11 37 0 5 9 14 20 20 17 9 26 7 51 -14
16 -14 46 -28 67 -31 20 -4 46 -9 57 -12 18 -5 18 -4 -3 20 -13 14 -35 28 -49
32 -23 5 -24 7 -10 23 15 16 12 17 -39 16 -30 0 -58 4 -61 9 -3 6 -2 7 4 4 5
-3 10 0 10 8 0 9 -5 11 -11 6 -37 -28 -44 -21 -45 42 0 34 4 80 9 102 6 25 5
42 -1 46 -5 3 -12 23 -15 45 -9 70 -14 84 -34 104 -20 20 -56 28 -45 10z m39
-357 c14 -20 23 -40 20 -45 -3 -5 -23 -7 -44 -6 -38 3 -39 4 -34 33 4 26 20
55 30 55 2 0 14 -17 28 -37z m36 12 c0 -8 -4 -15 -10 -15 -5 0 -10 7 -10 15 0
8 5 15 10 15 6 0 10 -7 10 -15z"/>
<path d="M5555 5923 c10 -43 45 -117 51 -111 3 4 0 25 -7 48 -11 35 -10 43 2
52 11 8 11 9 -3 5 -10 -4 -18 1 -21 14 -3 10 -11 19 -17 19 -8 0 -10 -9 -5
-27z"/>
<path d="M7750 5855 c0 -36 4 -65 9 -65 5 0 20 24 34 53 27 57 22 77 -19 77
-23 0 -24 -3 -24 -65z"/>
<path d="M5100 5866 c0 -2 7 -7 16 -10 8 -3 12 -2 9 4 -6 10 -25 14 -25 6z"/>
<path d="M5642 5850 c0 -14 2 -19 5 -12 2 6 2 18 0 25 -3 6 -5 1 -5 -13z"/>
<path d="M6100 5786 c-41 -9 -50 -14 -36 -19 23 -9 216 -22 216 -14 0 3 -16
14 -36 26 -39 23 -63 24 -144 7z"/>
<path d="M5920 5749 c-14 -10 -45 -23 -70 -28 l-45 -8 33 -15 c18 -8 30 -16
28 -19 -5 -5 110 -1 144 5 14 2 34 -2 44 -10 28 -20 248 -20 240 0 -8 21 -117
66 -155 65 -19 -1 -61 5 -94 14 -75 21 -94 21 -125 -4z"/>
<path d="M4590 5740 c0 -5 5 -10 11 -10 5 0 7 5 4 10 -3 6 -8 10 -11 10 -2 0
-4 -4 -4 -10z"/>
<path d="M7420 5713 c0 -34 1 -35 18 -21 9 9 23 17 29 19 7 2 -1 12 -17 21
l-30 17 0 -36z"/>
<path d="M7499 5691 c6 -11 11 -24 10 -28 -3 -20 2 -27 11 -13 7 11 10 -1 10
-39 0 -68 8 -62 15 10 5 61 0 73 -33 84 -22 6 -23 5 -13 -14z"/>
<path d="M7560 5686 c0 -2 7 -9 15 -16 12 -10 15 -10 15 4 0 9 -7 16 -15 16
-8 0 -15 -2 -15 -4z"/>
<path d="M5495 5673 c-22 -3 -46 -10 -54 -16 -8 -7 -30 -20 -50 -29 l-36 -17
30 -1 c28 0 155 53 155 65 0 3 -1 4 -2 3 -2 -1 -21 -3 -43 -5z"/>
<path d="M7597 5547 c-4 -10 -3 -26 2 -34 11 -21 19 -4 11 27 -5 22 -7 23 -13
7z"/>
<path d="M6140 5250 c-8 -5 -12 -12 -9 -15 4 -3 12 1 19 10 14 17 11 19 -10 5z"/>
<path d="M6127 5213 c-2 -4 0 -19 6 -33 l10 -25 5 24 c4 24 -12 50 -21 34z"/>
<path d="M6128 5005 c-3 -5 -9 -31 -13 -57 -7 -43 -5 -48 12 -48 16 0 18 6 15
43 -5 63 -7 73 -14 62z"/>
<path d="M6150 4950 c0 -5 5 -10 11 -10 5 0 7 5 4 10 -3 6 -8 10 -11 10 -2 0
-4 -4 -4 -10z"/>
<path d="M8508 4939 c-47 -21 -48 -22 -74 -108 -14 -47 -41 -124 -60 -170 -19
-46 -41 -113 -49 -150 -9 -40 -48 -133 -99 -236 -46 -93 -110 -226 -143 -294
-32 -69 -73 -142 -90 -164 -25 -29 -31 -45 -27 -63 4 -14 0 -34 -8 -47 -9 -13
-17 -58 -20 -115 -5 -78 -10 -98 -31 -130 -50 -72 -56 -99 -51 -233 2 -68 8
-144 12 -169 7 -42 11 -46 68 -76 64 -33 114 -71 114 -87 0 -5 -6 -7 -13 -4
-8 3 -20 1 -28 -4 -8 -5 -9 -9 -2 -9 6 0 9 -10 7 -22 -4 -22 -4 -22 6 1 9 22
12 22 33 8 12 -8 21 -17 20 -21 -2 -3 -3 -13 -3 -22 0 -9 -5 -12 -12 -8 -8 5
-9 0 -5 -17 4 -13 7 -30 7 -36 0 -7 4 -13 10 -13 16 0 50 38 39 44 -5 2 -4 3
3 2 18 -4 38 -45 38 -78 0 -16 5 -28 10 -28 6 0 10 -4 10 -10 0 -5 -9 -10 -20
-10 -11 0 -28 -4 -38 -10 -9 -5 -30 -15 -47 -21 -29 -10 -29 -11 -11 -25 24
-17 46 -18 46 -3 0 8 4 8 15 -1 8 -7 24 -9 37 -5 22 7 22 6 4 -8 -42 -31 7
-67 93 -67 31 0 53 -5 61 -15 11 -13 8 -15 -14 -15 -14 0 -26 5 -26 10 0 6
-17 9 -37 9 -22 -1 -29 -4 -16 -6 27 -5 53 -33 32 -34 -8 0 -3 -5 10 -10 14
-6 28 -6 35 0 7 6 16 4 23 -5 10 -10 10 -15 -5 -23 -15 -9 -15 -10 5 -11 12 0
24 -6 26 -12 3 -7 6 3 6 22 1 19 -6 48 -14 64 -11 21 -12 31 -4 36 8 5 6 17
-7 41 -10 19 -17 40 -16 47 2 7 -8 12 -23 12 -31 0 -32 13 -2 33 l22 16 -25 2
c-59 5 -75 4 -81 -5 -4 -5 -10 1 -14 13 -3 11 -11 21 -16 21 -6 0 -7 5 -3 11
3 6 2 14 -4 18 -6 4 -5 11 4 19 12 11 14 8 14 -17 0 -16 5 -33 10 -36 6 -3 10
-2 10 4 0 5 9 13 20 16 11 3 20 14 20 24 0 10 9 26 20 36 27 24 22 47 -10 52
-45 6 -51 11 -46 40 2 16 5 36 5 47 1 16 6 17 38 11 21 -4 42 -9 47 -13 5 -3
26 -6 45 -7 20 0 62 -2 94 -3 36 -1 56 -6 52 -12 -10 -17 32 -11 50 7 14 13
18 14 25 3 7 -11 12 -10 26 5 18 18 19 17 25 -6 6 -22 7 -22 8 -3 1 24 -1 23
144 50 55 10 92 21 85 25 -7 4 -9 11 -5 15 4 4 -1 12 -9 19 -14 10 -17 41 -18
222 -1 171 -4 213 -16 228 -19 23 -20 212 -1 295 7 32 11 126 11 230 -1 170
-1 177 28 255 32 88 47 155 35 154 -4 0 -24 -20 -43 -43 -19 -24 -48 -52 -65
-62 -16 -10 -47 -31 -67 -47 -21 -17 -41 -28 -44 -24 -7 6 13 36 90 137 55 72
96 153 96 188 0 23 -2 22 -42 -12 -52 -45 -62 -45 -41 -1 21 43 11 55 -25 28
-24 -17 -72 -36 -72 -28 0 13 45 104 59 120 21 23 41 78 41 109 -1 19 -3 18
-26 -9 -13 -16 -36 -54 -51 -83 -14 -29 -31 -51 -37 -49 -23 8 -15 35 24 77
45 49 46 63 6 68 -17 2 -26 0 -22 -7 10 -15 -32 -34 -60 -27 -31 8 -30 14 6
64 34 48 33 43 20 77 l-10 27 -73 -73 c-116 -117 -130 -127 -120 -89 3 11 18
30 34 41 41 29 82 103 74 130 -7 21 -5 22 34 16 22 -3 39 -1 36 3 -3 5 1 11 7
13 7 3 0 6 -17 6 -16 0 -51 -9 -77 -20z m-454 -1736 c3 -21 6 -66 6 -99 0 -47
-4 -63 -16 -68 -26 -10 -27 -8 -20 37 3 23 7 70 7 105 2 69 13 82 23 25z m113
-295 c-2 -13 -4 -5 -4 17 -1 22 1 32 4 23 2 -10 2 -28 0 -40z m-62 -47 c3 -5
1 -12 -4 -15 -5 -3 -11 1 -15 9 -6 16 9 21 19 6z m25 -47 c0 -2 -7 -4 -15 -4
-8 0 -15 4 -15 10 0 5 7 7 15 4 8 -4 15 -8 15 -10z m115 -231 l18 -28 -24 21
c-13 12 -31 24 -39 27 -10 4 -8 6 6 6 13 1 29 -10 39 -26z"/>
<path d="M8470 4939 c0 -5 5 -7 10 -4 6 3 10 8 10 11 0 2 -4 4 -10 4 -5 0 -10
-5 -10 -11z"/>
<path d="M6435 4900 c-3 -5 -1 -10 4 -10 6 0 11 5 11 10 0 6 -2 10 -4 10 -3 0
-8 -4 -11 -10z"/>
<path d="M6548 4883 c17 -2 47 -2 65 0 17 2 3 4 -33 4 -36 0 -50 -2 -32 -4z"/>
<path d="M5540 4616 l0 -246 108 1 c59 1 99 3 90 6 -18 4 -25 23 -10 23 5 0 9
46 10 103 1 143 4 160 32 164 38 6 36 13 -4 13 -42 0 -57 21 -32 45 9 9 16 22
16 30 0 16 220 29 295 18 48 -8 50 -10 59 -46 6 -24 6 -45 0 -55 -5 -9 -8 -83
-6 -164 l3 -148 58 0 58 0 7 108 c4 59 10 135 14 170 6 51 5 68 -9 89 -10 14
-15 32 -12 39 3 8 2 25 -1 39 -6 23 -11 25 -59 25 -29 0 -58 5 -65 12 -8 8
-93 13 -282 16 l-270 5 0 -247z m35 164 c3 -5 -1 -10 -9 -10 -9 0 -16 5 -16
10 0 6 4 10 9 10 6 0 13 -4 16 -10z"/>
<path d="M7270 4611 c-263 -88 -355 -130 -556 -252 -135 -81 -354 -208 -399
-231 -144 -73 -185 -94 -217 -115 -21 -13 -38 -21 -38 -18 0 5 -232 -134 -240
-144 -3 -3 -32 -26 -65 -51 -137 -102 -262 -246 -327 -375 -99 -196 -86 -398
41 -623 23 -40 48 -80 57 -90 51 -59 64 -76 64 -83 0 -11 218 -229 260 -259
18 -14 45 -34 59 -46 43 -35 181 -111 266 -146 44 -18 85 -39 91 -47 7 -8 16
-11 24 -6 9 5 11 4 6 -3 -4 -7 -1 -12 9 -12 9 0 13 4 10 10 -7 12 22 2 50 -17
18 -13 15 -14 -28 -12 -26 2 -53 9 -59 16 -9 11 -13 12 -21 1 -6 -10 -8 -9 -4
3 4 12 -1 18 -16 21 -33 6 -57 -2 -57 -17 0 -8 -4 -17 -10 -20 -5 -3 -7 0 -4
8 9 25 -10 25 -35 0 -13 -13 -19 -23 -13 -23 7 0 12 -4 12 -10 0 -5 -10 -10
-22 -10 -12 0 -18 -3 -15 -6 15 -15 227 -2 227 14 0 4 35 6 78 6 97 -2 102 -2
101 -11 -5 -30 3 -35 39 -31 40 6 56 0 111 -42 35 -27 82 -114 51 -95 -5 3
-10 1 -10 -4 0 -6 7 -11 16 -11 29 0 8 -25 -22 -26 -21 0 -29 -5 -28 -17 1 -9
-2 -14 -7 -12 -19 13 -110 -92 -109 -126 1 -8 10 3 21 24 11 20 25 37 31 37 6
0 3 -8 -6 -19 -10 -11 -19 -25 -20 -33 -2 -7 -8 -26 -14 -41 -7 -16 -12 -39
-12 -53 0 -14 -5 -23 -12 -22 -19 4 -10 -85 15 -142 11 -26 12 -37 4 -42 -7
-5 -2 -8 13 -8 24 -1 24 -1 6 -15 -19 -15 -19 -15 5 -16 l24 -1 -25 -8 -25 -8
25 -2 c23 -1 23 -2 5 -10 -18 -8 -18 -9 5 -10 l25 -1 -25 -12 -25 -11 30 -4
c30 -5 30 -5 5 -12 l-25 -7 25 -11 25 -11 -25 -2 c-21 -1 -19 -3 10 -9 28 -6
30 -8 10 -9 -18 -1 -21 -4 -11 -10 7 -5 64 -7 125 -5 61 3 224 7 361 9 346 7
380 9 377 20 -1 6 -35 11 -75 12 -39 0 -92 2 -118 3 -25 1 -61 -1 -80 -5 -22
-5 -31 -4 -24 3 15 15 168 42 235 42 46 0 61 4 68 18 5 9 15 100 21 202 7 102
14 194 17 205 2 11 -5 2 -16 -20 -25 -52 -26 -30 0 37 l20 53 -24 -29 c-13
-16 -34 -62 -46 -102 -21 -71 -27 -79 -59 -74 -7 1 -36 -4 -65 -10 -94 -21
-101 -22 -94 -14 4 4 2 14 -5 22 -9 12 -9 16 1 19 14 5 16 33 2 33 -5 0 -10 6
-10 14 0 8 -6 16 -12 19 -7 2 -1 6 14 9 25 5 27 3 22 -19 -6 -22 -4 -24 17
-21 18 2 23 8 21 24 -2 12 4 24 13 27 8 4 15 15 15 25 0 10 5 23 12 30 6 6 9
15 5 19 -4 3 -14 -2 -21 -13 -14 -18 -15 -18 -25 6 -5 14 -10 20 -10 14 -2
-21 -54 -64 -77 -64 -29 0 -30 9 -3 55 17 29 18 34 5 29 -12 -4 -15 -2 -11 9
6 15 -20 31 -36 21 -5 -3 -9 0 -9 6 0 7 -18 9 -50 7 -40 -4 -58 -12 -90 -41
-115 -103 -276 -131 -296 -50 -9 35 22 102 39 85 8 -8 8 -14 -1 -23 -17 -17
-15 -53 4 -69 20 -16 103 -16 135 1 61 32 114 85 77 78 -7 -2 -15 12 -18 31
-3 19 -11 36 -18 39 -9 3 -11 -4 -7 -25 5 -21 4 -24 -4 -13 -6 8 -11 23 -11
32 0 12 -5 15 -17 11 -10 -4 -14 -2 -10 5 8 12 -12 62 -24 62 -5 0 -8 10 -6
21 1 12 -3 24 -10 26 -7 3 -10 -4 -7 -19 2 -13 -5 -5 -16 18 -11 23 -27 47
-36 55 -16 13 -16 12 -5 -9 7 -13 11 -26 8 -28 -4 -4 -21 28 -31 59 -3 9 -10
17 -17 17 -6 0 -8 -7 -4 -17 4 -12 3 -14 -3 -8 -6 6 -12 19 -14 30 -2 14 -31
34 -96 65 -51 25 -103 47 -115 48 -19 1 -230 67 -281 88 -16 6 -18 4 -14 -14
4 -12 2 -20 -3 -16 -5 3 -9 13 -9 22 0 10 -9 23 -19 29 -16 10 -20 9 -24 -5
-3 -12 -5 -10 -6 6 0 14 -6 22 -13 20 -6 -2 -20 4 -31 15 -16 16 -21 17 -28 6
-7 -11 -9 -10 -9 3 0 9 -5 20 -11 24 -8 4 -9 -1 -4 -17 4 -16 3 -20 -3 -11 -5
8 -13 13 -18 12 -5 0 -10 7 -11 17 -2 15 -1 15 6 -2 8 -16 10 -17 10 -3 1 20
-15 32 -24 18 -8 -13 -25 -3 -25 13 0 7 4 6 10 -3 6 -9 10 -10 10 -3 0 16 -17
26 -25 13 -8 -13 -25 -3 -25 13 0 7 4 6 10 -3 6 -9 10 -10 10 -3 0 17 -17 25
-26 12 -4 -8 -14 0 -26 22 -11 19 -17 25 -14 14 6 -19 5 -19 -7 -3 -8 10 -18
14 -22 10 -5 -4 -5 1 -2 11 4 11 3 16 -3 12 -6 -3 -10 -1 -10 4 0 6 -6 10 -12
9 -7 -2 -12 5 -12 14 1 10 -2 15 -7 12 -5 -3 -9 0 -9 7 0 7 -3 10 -6 7 -9 -9
-74 64 -67 75 3 6 2 8 -3 5 -5 -3 -15 0 -22 8 -7 8 -9 14 -5 14 4 0 -3 7 -15
16 -13 9 -21 22 -18 30 4 9 -4 18 -21 25 -14 5 -23 12 -20 16 4 3 -1 12 -11
20 -10 9 -11 12 -2 7 8 -4 3 4 -12 19 -28 26 -38 44 -18 32 6 -3 10 -1 10 4 0
6 -6 11 -14 11 -8 0 -18 5 -22 12 -4 7 -3 8 4 4 7 -4 12 -2 12 3 0 6 -8 11
-17 11 -15 0 -16 2 -3 10 13 8 12 10 -2 10 -10 0 -18 5 -18 11 0 5 3 8 8 5 4
-2 -5 35 -21 82 -25 76 -28 98 -24 172 5 103 30 173 98 273 113 168 264 292
512 421 70 36 183 95 252 131 158 82 287 154 356 198 187 119 355 195 577 263
l142 43 66 -31 c69 -32 83 -33 58 -2 -8 10 -12 12 -8 4 7 -13 5 -13 -9 -1 -18
15 -23 26 -7 16 15 -9 12 12 -5 45 -19 36 -61 43 -50 9 5 -15 4 -19 -4 -14 -7
4 -19 1 -27 -6 -24 -20 -37 3 -38 70 0 34 -1 61 -1 61 0 0 -65 -22 -145 -49z
m-1784 -1346 c-1 -8 -5 -17 -8 -21 -5 -4 -4 16 1 34 3 9 9 -1 7 -13z m-9 -85
c1 -11 -2 -20 -7 -20 -6 0 -7 17 -1 38 3 8 7 -1 8 -18z m53 -210 c0 -5 -4 -10
-10 -10 -5 0 -10 5 -10 10 0 6 5 10 10 10 6 0 10 -4 10 -10z m557 -622 c-3 -8
-6 -5 -6 6 -1 11 2 17 5 13 3 -3 4 -12 1 -19z m130 -70 c-3 -8 -6 -5 -6 6 -1
11 2 17 5 13 3 -3 4 -12 1 -19z m50 -20 c-3 -8 -6 -5 -6 6 -1 11 2 17 5 13 3
-3 4 -12 1 -19z m120 -40 c-3 -8 -6 -5 -6 6 -1 11 2 17 5 13 3 -3 4 -12 1 -19z
m30 -10 c-3 -8 -6 -5 -6 6 -1 11 2 17 5 13 3 -3 4 -12 1 -19z m70 -20 c-3 -8
-6 -5 -6 6 -1 11 2 17 5 13 3 -3 4 -12 1 -19z m30 -3 c0 -8 -4 -12 -9 -9 -5 3
-6 10 -3 15 9 13 12 11 12 -6z m53 -16 c0 -11 -4 -18 -10 -14 -5 3 -7 12 -3
20 7 21 13 19 13 -6z m47 -31 c-3 -8 -6 -5 -6 6 -1 11 2 17 5 13 3 -3 4 -12 1
-19z m30 -10 c-3 -8 -6 -5 -6 6 -1 11 2 17 5 13 3 -3 4 -12 1 -19z m30 -20
c-3 -8 -6 -5 -6 6 -1 11 2 17 5 13 3 -3 4 -12 1 -19z m183 -338 c0 -5 -5 -10
-11 -10 -5 0 -7 5 -4 10 3 6 8 10 11 10 2 0 4 -4 4 -10z m261 -127 c-12 -20
-14 -14 -5 12 4 9 9 14 11 11 3 -2 0 -13 -6 -23z m-166 -24 c11 -17 2 -19 -55
-12 -40 5 -49 8 -35 14 30 11 83 10 90 -2z m236 -5 c12 -15 11 -16 -9 -10 -20
7 -21 5 -12 -18 7 -20 6 -26 -4 -26 -7 0 -29 -3 -47 -7 -30 -6 -32 -4 -21 9 7
9 10 24 6 34 -5 16 -4 16 5 4 9 -13 13 -12 33 8 27 26 31 27 49 6z m222 -361
c-7 -2 -19 -2 -25 0 -7 3 -2 5 12 5 14 0 19 -2 13 -5z"/>
<path d="M6495 4350 c-10 -17 4 -62 18 -57 15 5 16 59 0 64 -6 2 -14 -1 -18
-7z"/>
<path d="M4794 4035 c0 -143 2 -200 3 -127 2 73 2 190 0 260 -1 70 -3 10 -3
-133z"/>
<path d="M4804 3455 c0 -154 2 -216 3 -137 2 79 2 205 0 280 -1 75 -3 11 -3
-143z"/>
<path d="M6814 3676 c-8 -21 -1 -49 13 -53 13 -5 21 23 15 50 -5 21 -21 22
-28 3z"/>
<path d="M9036 3567 c4 -34 3 -57 -3 -57 -12 0 -4 -63 10 -71 5 -4 12 -59 15
-123 4 -95 2 -119 -10 -134 -25 -27 -29 -56 -13 -78 16 -21 20 -48 6 -40 -16
10 -112 -15 -131 -34 -12 -12 -20 -15 -23 -7 -2 6 -6 1 -9 -11 -5 -18 -2 -22
15 -21 12 0 31 4 42 9 17 7 17 9 3 9 -10 1 -18 6 -18 11 0 6 8 10 18 10 9 0
35 7 57 14 26 9 46 11 57 5 9 -5 29 -9 44 -9 l27 0 -7 78 c-4 42 -13 115 -21
162 -8 47 -22 139 -31 205 -17 121 -41 191 -28 82z"/>
<path d="M7589 3585 c-1 -3 -2 -17 -4 -32 -1 -16 -3 -34 -6 -42 -2 -7 1 -15 6
-17 9 -4 35 60 35 86 0 10 -29 15 -31 5z"/>
<path d="M391 3544 c0 -11 3 -14 6 -6 3 7 2 16 -1 19 -3 4 -6 -2 -5 -13z"/>
<path d="M2256 3533 c-6 -14 -5 -15 5 -6 7 7 10 15 7 18 -3 3 -9 -2 -12 -12z"/>
<path d="M401 3494 c0 -11 3 -14 6 -6 3 7 2 16 -1 19 -3 4 -6 -2 -5 -13z"/>
<path d="M2230 3495 c0 -8 -3 -14 -7 -14 -21 3 -32 -3 -38 -21 -4 -11 -11 -18
-16 -15 -5 4 -9 1 -9 -5 0 -6 -10 -14 -22 -19 -12 -4 -27 -23 -34 -42 -7 -23
-17 -33 -28 -31 -9 2 -29 -6 -45 -17 -15 -11 -31 -18 -35 -14 -3 3 -6 -3 -6
-15 0 -12 -9 -23 -22 -28 -12 -3 -37 -13 -57 -22 -20 -9 -39 -16 -43 -16 -4
-1 -13 -7 -19 -13 -10 -10 -10 -13 1 -13 10 0 9 -4 -3 -18 -10 -10 -14 -21
-11 -25 3 -3 -5 -3 -18 0 -41 10 -7 -12 65 -42 37 -16 79 -39 93 -52 21 -19
29 -21 46 -12 14 7 17 14 9 18 -14 9 8 58 49 111 15 19 31 46 35 60 4 14 22
48 40 75 41 63 97 185 84 185 -5 0 -9 -7 -9 -15z"/>
<path d="M411 3444 c0 -11 3 -14 6 -6 3 7 2 16 -1 19 -3 4 -6 -2 -5 -13z"/>
<path d="M391 3368 c-11 -30 3 -143 21 -165 7 -9 7 -13 -1 -13 -8 0 -8 -5 0
-19 7 -11 9 -26 4 -37 -4 -11 -9 -25 -9 -32 -1 -7 -8 -17 -16 -22 -9 -6 -15
-24 -15 -47 0 -39 0 -39 -46 -26 -10 3 -24 -8 -37 -29 -12 -18 -22 -30 -22
-25 0 14 -60 -23 -60 -38 0 -8 -12 -17 -27 -21 -49 -11 -83 -28 -83 -43 0 -8
-6 -11 -16 -7 -17 7 -48 -53 -34 -68 5 -4 -5 -21 -21 -37 l-29 -28 0 -164 0
-163 218 23 c119 12 312 27 427 33 253 13 790 48 825 55 14 2 108 12 210 20
102 9 233 22 291 30 59 8 156 17 215 20 60 4 219 17 354 31 224 22 778 74 787
74 2 0 2 4 -1 9 -10 15 273 41 454 41 l95 0 -32 23 c-37 25 -41 37 -15 37 18
1 -49 28 -83 34 -15 2 -21 12 -23 39 -2 28 -8 37 -22 37 -18 0 -31 20 -35 54
-1 10 -9 22 -18 27 -29 17 -70 121 -81 209 -13 92 -17 91 -41 -10 -7 -30 -18
-73 -24 -95 -35 -130 -53 -276 -41 -330 5 -23 -1 -32 -22 -31 -29 2 -35 18
-11 28 16 8 16 8 -2 4 -11 -2 -29 -7 -40 -12 -20 -7 -20 -7 -1 14 12 14 14 22
7 22 -7 0 -10 4 -7 9 3 5 -2 12 -11 16 -10 3 -19 1 -21 -5 -3 -8 -8 -8 -18 0
-15 14 -37 4 -28 -12 4 -6 2 -8 -4 -4 -6 3 -18 -4 -26 -16 -11 -15 -16 -18
-16 -8 -1 10 -7 7 -21 -9 -11 -13 -22 -21 -26 -17 -3 3 -3 6 2 6 4 0 1 8 -6
17 -10 11 -10 14 -1 9 8 -4 12 -1 12 10 0 15 -2 15 -25 0 -14 -9 -25 -13 -26
-9 -6 89 -16 113 -25 65 -4 -17 -13 -37 -20 -43 -11 -9 -13 -9 -9 2 2 8 1 20
-4 28 -7 12 -13 12 -24 3 -18 -16 -28 -5 -18 22 4 11 4 37 0 56 -3 19 -7 27
-8 18 0 -9 -8 -23 -16 -32 -9 -9 -11 -17 -5 -21 5 -3 10 -17 10 -30 0 -16 -8
-26 -29 -33 -30 -11 -51 -1 -51 24 0 6 -8 15 -17 18 -10 4 -14 4 -11 0 11 -11
-11 -44 -30 -44 -15 -1 -15 -2 2 -15 14 -11 16 -15 5 -15 -12 0 -12 -2 1 -10
8 -5 10 -10 4 -10 -6 0 -14 3 -18 8 -4 4 -13 7 -19 7 -8 0 -11 13 -9 34 2 22
0 31 -7 26 -15 -8 -14 -1 4 41 8 19 10 32 6 29 -10 -6 -23 23 -16 35 3 5 1 11
-4 14 -5 3 -12 -6 -15 -20 -5 -19 -11 -24 -23 -19 -16 5 -16 4 -1 -12 9 -10
19 -30 23 -44 6 -24 3 -27 -25 -31 -17 -3 -34 0 -37 5 -4 6 -1 7 7 2 9 -6 11
-4 6 4 -5 7 -14 10 -21 7 -9 -3 -12 1 -10 13 4 23 -32 25 -40 1 -6 -18 -38
-21 -63 -6 -13 8 -8 42 9 63 10 11 10 14 -2 11 -8 -2 -15 5 -15 17 -3 39 -5
40 -18 10 -8 -19 -10 -38 -5 -53 14 -36 11 -45 -11 -39 -11 3 -18 1 -14 -4 3
-5 -2 -9 -10 -9 -9 0 -16 5 -16 10 0 6 -7 10 -15 10 -8 0 -15 5 -15 10 0 6 -4
10 -10 10 -5 0 -10 -6 -10 -13 0 -7 -6 -19 -12 -26 -15 -14 -17 -33 -5 -42 5
-3 1 -9 -9 -13 -10 -4 -15 -4 -11 0 4 4 1 14 -6 22 -9 12 -9 16 1 19 17 6 5
23 -16 23 -12 0 -13 -3 -5 -8 8 -5 9 -13 3 -22 -9 -13 -10 -13 -10 0 0 13 -1
13 -10 0 -5 -8 -10 -10 -10 -5 0 6 -11 10 -24 10 -17 0 -22 -3 -15 -12 7 -8 5
-10 -8 -8 -10 2 -22 4 -28 4 -5 1 4 10 20 22 l30 20 -35 -6 c-19 -4 -32 -4
-28 0 4 4 0 14 -8 23 -14 13 -17 13 -25 1 -10 -16 -12 -27 -10 -51 3 -27 -27
-22 -60 11 -29 29 -37 51 -20 51 5 0 11 -10 15 -22 4 -19 7 -20 18 -9 8 9 9
15 3 17 -6 3 -9 20 -7 39 3 29 -1 41 -27 67 l-31 32 15 -49 c19 -63 19 -60
-10 -61 -21 -2 -24 2 -21 22 6 30 -10 31 -34 2 -14 -18 -21 -20 -32 -10 -8 6
-17 9 -20 6 -8 -8 3 -44 13 -44 19 0 99 -83 124 -129 20 -34 24 -50 16 -62
-11 -19 -5 -29 20 -29 23 0 14 -37 -13 -51 -19 -10 -71 -7 -131 8 -12 3 -30 5
-40 4 -12 0 -17 5 -13 14 3 9 0 12 -10 8 -7 -3 -14 -10 -14 -17 0 -7 -3 -6 -8
2 -6 9 -16 10 -33 4 -30 -10 -62 -4 -52 10 4 7 0 9 -9 5 -12 -4 -14 -1 -11 14
3 11 0 19 -6 19 -7 0 -9 -4 -6 -10 4 -6 -1 -7 -12 -3 -31 11 -33 14 -23 34 8
14 7 19 -3 19 -19 0 -37 -21 -37 -42 0 -10 -4 -18 -10 -18 -5 0 -10 -7 -10
-15 0 -8 -4 -15 -10 -15 -5 0 -10 5 -10 10 0 7 -6 7 -19 0 -11 -5 -28 -10 -37
-10 -10 0 -26 -8 -37 -17 -15 -13 -21 -15 -24 -5 -3 6 -9 9 -14 6 -6 -3 -2
-12 8 -21 12 -9 13 -13 4 -11 -8 3 -19 12 -25 22 -9 13 -7 20 8 32 16 11 17
14 4 14 -9 0 -19 6 -22 13 -3 6 -5 3 -5 -8 3 -48 -2 -65 -16 -65 -8 0 -15 5
-15 10 0 6 5 10 12 10 19 0 -3 17 -32 25 -14 3 -20 3 -13 -2 9 -6 7 -15 -7
-32 -17 -23 -19 -24 -35 -7 -10 9 -24 15 -32 12 -8 -3 -19 -6 -24 -6 -5 0 -9
-6 -9 -14 0 -14 -46 -11 -56 5 -3 5 3 6 13 2 14 -5 16 -3 6 7 -14 15 -44 6
-41 -12 2 -9 -9 -12 -39 -11 -33 1 -41 -1 -36 -13 3 -9 -1 -14 -12 -14 -9 0
-14 4 -10 9 3 5 1 12 -4 15 -5 3 -11 -4 -14 -15 -4 -15 -10 -18 -19 -13 -16
11 -58 13 -52 2 2 -4 -12 -10 -32 -14 -30 -5 -40 -3 -51 12 -12 16 -15 17 -23
4 -6 -8 -10 -10 -10 -3 0 14 -13 11 -64 -11 -29 -13 -60 -17 -122 -14 -77 3
-85 1 -91 -17 -6 -19 -6 -19 -14 1 -9 27 -54 36 -96 22 -38 -14 -67 3 -58 33
6 18 -6 69 -43 184 -11 33 -34 112 -51 175 -18 63 -40 124 -50 135 -11 11 -22
40 -26 65 -8 57 -53 225 -70 265 l-13 30 -11 -27z m123 -373 c3 -8 1 -15 -4
-15 -6 0 -10 7 -10 15 0 8 2 15 4 15 2 0 6 -7 10 -15z m3 -47 c-3 -8 -6 -5 -6
6 -1 11 2 17 5 13 3 -3 4 -12 1 -19z m13 -72 c0 -39 -6 -30 -13 19 -4 27 -3
35 3 25 5 -8 10 -28 10 -44z m1718 29 c-3 -3 -9 2 -12 12 -6 14 -5 15 5 6 7
-7 10 -15 7 -18z m1462 -29 c0 -3 -4 -8 -10 -11 -5 -3 -10 -1 -10 4 0 6 5 11
10 11 6 0 10 -2 10 -4z m-1050 -68 c0 -9 3 -8 10 2 8 13 10 12 10 -3 0 -10 4
-16 9 -13 4 3 16 -1 26 -8 17 -12 16 -13 -6 -10 -13 1 -25 3 -26 3 -2 1 -5 0
-8 -1 -2 -2 -11 6 -19 17 -12 15 -15 16 -16 5 0 -12 -2 -13 -9 -1 -6 9 -11 10
-15 2 -4 -6 -12 -9 -17 -5 -16 9 -2 20 30 22 20 1 31 -2 31 -10z m208 -20 c-3
-7 -11 -13 -19 -13 -8 0 -19 -4 -26 -8 -6 -4 -14 -3 -18 3 -4 6 -12 8 -18 4
-7 -3 -5 1 4 8 23 18 82 23 77 6z m174 -20 c-6 -6 -21 -12 -33 -13 -21 -2 -21
-1 -4 11 10 7 22 11 26 8 5 -3 9 0 9 7 0 7 3 9 7 6 4 -4 1 -13 -5 -19z m258
-12 c0 -3 -4 -8 -10 -11 -5 -3 -10 -1 -10 4 0 6 5 11 10 11 6 0 10 -2 10 -4z
m-1690 -166 c0 -5 -5 -10 -11 -10 -5 0 -7 5 -4 10 3 6 8 10 11 10 2 0 4 -4 4
-10z m-15 -50 c3 -5 2 -10 -4 -10 -5 0 -13 5 -16 10 -3 6 -2 10 4 10 5 0 13
-4 16 -10z"/>
<path d="M3526 3345 c4 -8 8 -15 10 -15 2 0 4 7 4 15 0 8 -4 15 -10 15 -5 0
-7 -7 -4 -15z"/>
<path d="M6304 3276 c-8 -21 -1 -49 13 -53 6 -2 14 5 17 15 12 36 -17 72 -30
38z"/>
<path d="M6820 3159 c0 -38 24 -35 28 4 2 19 -1 27 -12 27 -11 0 -16 -10 -16
-31z"/>
<path d="M7700 3141 c0 -6 5 -13 10 -16 6 -3 10 1 10 9 0 9 -4 16 -10 16 -5 0
-10 -4 -10 -9z"/>
<path d="M2096 3115 c10 -8 24 -15 30 -15 6 0 21 -12 35 -27 13 -14 18 -23 12
-19 -16 9 -16 4 1 -28 11 -22 15 -24 25 -12 6 7 9 21 5 30 -7 19 -96 86 -115
86 -8 0 -5 -6 7 -15z"/>
<path d="M4814 3005 c0 -71 1 -99 3 -62 2 37 2 96 0 130 -2 34 -3 4 -3 -68z"/>
<path d="M7702 3075 c0 -16 2 -22 5 -12 2 9 2 23 0 30 -3 6 -5 -1 -5 -18z"/>
<path d="M2542 2995 c0 -16 2 -22 5 -12 2 9 2 23 0 30 -3 6 -5 -1 -5 -18z"/>
<path d="M8968 3013 c6 -2 18 -2 25 0 6 3 1 5 -13 5 -14 0 -19 -2 -12 -5z"/>
<path d="M3990 2995 c0 -6 76 -45 87 -45 4 0 -12 11 -36 25 -44 26 -51 28 -51
20z"/>
<path d="M2015 2945 c21 -18 43 -31 47 -29 4 3 8 0 8 -6 0 -6 5 -8 11 -4 8 4
3 12 -13 20 -14 7 -28 23 -31 35 -5 20 -8 21 -23 8 -12 -9 -15 -10 -10 -1 5 8
1 12 -11 12 -13 -1 -8 -10 22 -35z"/>
<path d="M2960 2951 c0 -25 6 -27 13 -6 4 8 2 17 -3 20 -6 4 -10 -3 -10 -14z"/>
<path d="M2427 2934 c-2 -15 -1 -38 3 -53 l7 -26 12 29 c8 21 8 32 0 42 -6 7
-8 18 -4 24 3 5 2 10 -3 10 -5 0 -12 -12 -15 -26z"/>
<path d="M3172 2940 c0 -14 2 -19 5 -12 2 6 2 18 0 25 -3 6 -5 1 -5 -13z"/>
<path d="M3264 2885 c-3 -14 -10 -25 -15 -25 -5 0 -4 -12 1 -26 14 -37 12 -52
-7 -57 -14 -4 -12 -5 5 -6 17 -1 22 4 22 23 0 14 5 28 10 31 6 4 7 12 3 18 -4
6 -6 24 -5 39 3 35 -6 36 -14 3z"/>
<path d="M3158 2893 c7 -3 16 -2 19 1 4 3 -2 6 -13 5 -11 0 -14 -3 -6 -6z"/>
<path d="M3770 2890 c0 -5 5 -10 11 -10 5 0 7 5 4 10 -3 6 -8 10 -11 10 -2 0
-4 -4 -4 -10z"/>
<path d="M8476 2882 c-12 -20 -17 -80 -6 -87 7 -5 9 2 4 21 -5 21 -4 25 6 19
10 -6 12 -4 7 8 -3 10 -3 17 2 17 4 0 8 7 8 15 0 16 -13 20 -21 7z"/>
<path d="M2428 2843 c7 -3 16 -2 19 1 4 3 -2 6 -13 5 -11 0 -14 -3 -6 -6z"/>
<path d="M3770 2841 c0 -6 5 -13 10 -16 6 -3 10 1 10 9 0 9 -4 16 -10 16 -5 0
-10 -4 -10 -9z"/>
<path d="M7681 2783 c2 -70 6 -63 11 20 2 26 0 47 -4 47 -5 0 -7 -30 -7 -67z"/>
<path d="M8501 2823 c-7 -8 -10 -17 -7 -20 9 -9 29 13 25 25 -2 6 -10 3 -18
-5z"/>
<path d="M8016 2813 c-6 -14 -5 -15 5 -6 7 7 10 15 7 18 -3 3 -9 -2 -12 -12z"/>
<path d="M7133 2813 c9 -2 25 -2 35 0 9 3 1 5 -18 5 -19 0 -27 -2 -17 -5z"/>
<path d="M7023 2803 c9 -2 25 -2 35 0 9 3 1 5 -18 5 -19 0 -27 -2 -17 -5z"/>
<path d="M20 2782 c6 -13 14 -21 18 -18 3 4 -2 14 -12 24 -18 16 -18 16 -6 -6z"/>
<path d="M6913 2793 c9 -2 23 -2 30 0 6 3 -1 5 -18 5 -16 0 -22 -2 -12 -5z"/>
<path d="M6808 2783 c6 -2 18 -2 25 0 6 3 1 5 -13 5 -14 0 -19 -2 -12 -5z"/>
<path d="M8643 2750 c-8 -33 -11 -38 -12 -18 -1 26 -3 26 -83 33 -71 6 -91 4
-140 -15 -60 -22 -75 -39 -35 -41 12 0 36 -3 52 -7 47 -10 247 -6 275 6 23 10
23 11 4 11 -26 1 -41 17 -46 51 -3 20 -6 17 -15 -20z"/>
<path d="M6698 2773 c7 -3 16 -2 19 1 4 3 -2 6 -13 5 -11 0 -14 -3 -6 -6z"/>
<path d="M7985 2738 c6 -45 20 -68 41 -68 9 0 14 11 14 33 0 38 -7 50 -37 66
-22 11 -23 11 -18 -31z"/>
<path d="M8340 2687 c19 -20 37 -27 78 -30 83 -7 60 15 -40 37 -14 3 -34 9
-45 12 -14 5 -13 1 7 -19z"/>
<path d="M7666 2678 c-3 -13 -1 -27 4 -32 7 -7 10 1 10 22 0 37 -5 41 -14 10z"/>
<path d="M8506 2662 c-2 -4 4 -8 15 -8 10 0 19 4 19 8 0 4 -6 8 -14 8 -8 0
-17 -4 -20 -8z"/>
<path d="M1715 2630 c3 -6 1 -10 -6 -10 -7 0 -10 -3 -6 -6 3 -3 13 -2 22 4 16
8 16 9 1 15 -10 4 -15 3 -11 -3z"/>
<path d="M8433 2633 c-29 -2 -53 -8 -53 -12 0 -4 17 -13 38 -20 32 -11 39 -19
52 -59 13 -39 20 -48 45 -53 21 -5 8 -7 -40 -8 l-70 -2 50 -14 c28 -8 54 -14
58 -15 4 0 13 -13 18 -30 6 -16 15 -30 21 -30 5 0 6 -5 2 -12 -5 -7 -3 -8 6
-3 23 14 80 15 80 0 0 -7 9 -15 20 -18 21 -5 29 8 8 15 -18 6 -17 48 2 48 21
0 23 36 2 46 -9 4 -42 10 -72 13 l-55 6 23 23 c12 12 33 22 46 22 14 0 28 5
31 10 4 7 -4 9 -24 5 -16 -3 -32 -1 -36 5 -3 5 -13 7 -23 4 -15 -5 -15 -4 1 6
20 13 42 18 109 27 26 3 45 10 42 14 -3 5 -21 7 -40 5 -23 -3 -37 0 -42 10 -9
16 -107 25 -199 17z"/>
<path d="M1531 2611 c-7 -5 -9 -11 -5 -14 5 -3 15 1 22 9 14 16 5 18 -17 5z"/>
<path d="M4940 2610 c0 -5 5 -10 10 -10 6 0 10 5 10 10 0 6 -4 10 -10 10 -5 0
-10 -4 -10 -10z"/>
<path d="M7649 2543 c0 -38 -4 -88 -7 -112 -7 -43 -9 -45 -52 -55 -35 -9 -46
-16 -48 -33 -4 -27 3 -29 24 -8 20 19 60 19 68 0 3 -8 4 -28 1 -43 -2 -15 -6
-69 -9 -120 -3 -51 -7 -96 -10 -100 -2 -4 -7 -59 -11 -122 -4 -63 -11 -146
-16 -185 -5 -38 -11 -95 -14 -125 -2 -30 -7 -84 -11 -120 -4 -36 -8 -87 -9
-115 -2 -27 -8 -86 -14 -130 -9 -70 -19 -171 -20 -227 -1 -12 -9 -18 -26 -18
-23 0 -25 4 -25 44 0 24 -3 57 -6 73 l-6 29 -196 -3 c-233 -5 -217 -4 -289 -5
-266 -1 -365 -3 -345 -6 12 -2 22 -7 22 -12 0 -5 -10 -11 -22 -13 -20 -4 -19
-4 5 -6 32 -1 37 -21 5 -22 -22 -1 -22 -1 2 -8 24 -7 24 -7 5 -19 -18 -11 -18
-11 10 -12 l30 -1 -25 -14 -25 -14 28 -1 c33 0 27 -19 -6 -21 -14 -1 -9 -4 13
-9 l35 -7 -25 -11 -25 -11 30 -2 c24 -1 26 -3 8 -6 -29 -6 -30 -23 -1 -23 21
0 21 0 2 -15 -18 -14 -18 -14 11 -15 17 -1 23 -4 15 -7 -42 -14 -43 -17 -10
-23 19 -3 52 -2 73 2 22 5 62 4 90 -1 29 -5 56 -7 61 -4 5 4 97 7 205 8 108 1
201 3 206 5 6 1 27 2 48 1 36 -1 37 -2 37 -36 0 -48 -33 -62 -107 -44 -37 8
-63 9 -92 1 -28 -7 -54 -7 -81 0 -28 7 -57 7 -93 0 -29 -5 -72 -7 -97 -3 -25
4 -61 3 -80 -2 -19 -5 -64 -6 -100 -3 -37 3 -71 2 -80 -4 -12 -7 -8 -10 15
-10 31 0 25 -14 -10 -23 -15 -4 -14 -5 7 -6 35 -1 44 -17 15 -26 -21 -8 -21
-8 6 -12 31 -5 37 -23 7 -23 -11 0 -20 -4 -20 -10 0 -5 8 -10 19 -10 10 0 24
-6 30 -14 9 -11 6 -13 -16 -10 l-28 4 28 -13 28 -13 -23 -12 c-22 -12 -21 -12
10 -9 18 2 36 -1 39 -6 3 -6 1 -7 -5 -3 -7 4 -12 2 -12 -3 0 -6 -12 -11 -26
-11 -14 0 -23 -4 -19 -10 3 -6 17 -10 31 -10 35 0 30 -16 -8 -25 l-33 -8 30
-4 c45 -7 51 -19 13 -28 l-33 -7 38 -12 c40 -12 40 -26 0 -26 -13 0 -23 -4
-23 -9 0 -11 78 -25 106 -19 11 2 24 -2 29 -8 10 -12 688 -34 1042 -34 144 0
153 1 173 22 11 12 20 27 20 34 0 18 27 21 89 11 33 -6 72 -6 105 1 31 6 71 7
101 2 31 -6 69 -5 102 2 38 8 67 8 108 0 59 -12 127 -6 103 9 -7 5 -25 9 -39
9 -36 0 -44 12 -17 27 22 13 21 14 -14 10 -24 -2 -39 2 -42 10 -3 8 2 13 14
13 11 0 20 5 20 10 0 6 -10 10 -22 10 -13 0 -29 4 -37 9 -10 6 -6 11 15 19
l29 10 -30 2 c-16 1 -39 5 -49 9 -19 7 -18 8 5 16 l24 8 -25 4 c-50 8 -57 14
-30 26 l25 11 -30 3 c-51 6 -63 15 -35 23 21 7 22 8 4 9 -11 1 -29 8 -40 16
-18 14 -18 14 11 16 26 1 23 3 -15 11 l-45 11 30 13 30 13 -37 1 c-37 0 -65
19 -31 21 15 0 14 2 -5 11 -16 8 -36 8 -70 0 -30 -6 -64 -7 -93 -2 -25 5 -64
7 -85 4 -73 -9 -114 -10 -114 -1 0 9 -152 1 -195 -9 -17 -4 -18 -3 -5 6 12 9
1 10 -45 5 -33 -4 -78 -6 -100 -4 -22 1 -55 2 -72 1 -33 -1 -33 0 -32 46 1 26
3 39 6 29 4 -16 11 -18 56 -11 29 4 57 7 62 6 6 0 35 0 65 0 30 0 179 1 330 1
225 1 268 3 235 12 l-40 12 40 10 c33 8 13 10 -120 16 -88 4 -171 10 -184 13
-20 6 -23 4 -18 -10 6 -15 2 -16 -37 -11 -23 4 -60 2 -81 -4 -24 -6 -54 -7
-87 -1 -30 6 -66 6 -96 0 -50 -10 -113 -2 -119 17 -2 6 3 18 11 26 12 12 32
14 96 10 56 -4 80 -3 80 6 0 6 -15 12 -32 12 -24 1 -27 3 -10 6 33 7 26 23
-10 23 -31 1 -32 1 -14 15 19 14 18 15 -12 15 -36 0 -45 19 -9 21 18 1 16 2
-8 10 -17 4 -44 5 -60 1 -26 -7 -30 -13 -33 -53 -5 -53 -5 -54 -32 -39 -13 7
-19 18 -16 28 3 9 8 78 11 152 3 74 7 155 10 180 2 25 7 86 10 135 3 50 8 101
10 115 2 14 9 104 16 200 7 96 19 249 28 340 15 153 18 165 36 165 23 0 25
-24 11 -193 l-8 -102 41 6 c27 4 41 3 41 -5 0 -10 -17 -16 -65 -23 -15 -2 -21
-12 -23 -40 l-3 -37 33 12 c30 10 164 14 273 6 22 -1 106 -1 187 1 l147 2 5
62 c14 162 15 217 6 211 -6 -3 -15 6 -21 22 l-11 28 -18 -22 c-14 -18 -19 -20
-24 -8 -8 23 -25 18 -62 -19 -32 -32 -34 -38 -34 -99 0 -36 -4 -68 -10 -72 -5
-3 -6 -13 -3 -22 5 -12 2 -15 -10 -10 -18 7 -47 -17 -47 -39 0 -16 -16 -19
-25 -4 -3 5 -12 7 -21 3 -9 -3 -14 0 -12 8 2 8 -3 13 -9 11 -10 -1 -13 30 -13
130 0 170 -8 240 -26 230 -20 -11 -64 -100 -64 -128 0 -21 -2 -23 -13 -12 -8
7 -16 20 -20 28 -3 9 -6 10 -6 3 -1 -7 -8 -10 -16 -7 -11 5 -15 -2 -16 -27 -1
-31 -2 -32 -8 -9 l-7 25 -9 -25 c-5 -14 -8 -37 -7 -52 1 -15 -2 -29 -8 -33 -5
-3 -10 -14 -10 -25 0 -10 -6 -20 -14 -23 -15 -6 -26 31 -26 89 0 19 -4 34 -9
34 -5 0 -8 8 -6 18 1 9 -4 30 -12 45 -8 16 -11 37 -7 49 5 15 0 26 -17 40
l-24 18 29 -2 c31 -3 32 -2 50 77 5 22 4 26 -4 15 -8 -13 -10 -13 -10 3 0 9 5
17 10 17 18 0 10 21 -17 45 -16 13 -34 25 -40 25 -8 0 -13 13 -13 30 0 20 -5
30 -15 30 -12 0 -15 -14 -16 -67z m-303 -1402 c22 6 56 9 75 7 l34 -3 1 -61 2
-61 -40 7 c-54 10 -56 17 -9 25 64 11 52 32 -24 40 -35 3 -70 3 -77 -1 -7 -5
-53 -8 -103 -7 -49 1 -81 -1 -70 -4 45 -10 51 -15 30 -23 -17 -7 -16 -9 10
-10 18 -2 23 -4 13 -7 -26 -6 -22 -23 5 -24 17 -1 16 -3 -8 -8 -29 -7 -28 -8
17 -15 26 -5 51 -5 57 -1 6 3 47 3 91 -1 74 -6 80 -8 80 -29 0 -20 -7 -24 -54
-29 -31 -4 -72 -3 -94 4 -24 6 -50 7 -64 2 -20 -8 -228 -9 -298 -3 l-25 3 29
12 28 13 -33 8 c-33 7 -33 7 -9 15 l25 8 -27 1 c-34 1 -37 18 -5 24 18 4 17 5
-7 6 -24 1 -27 3 -16 16 10 13 9 15 -11 16 -24 2 -24 2 -1 6 12 2 22 9 22 14
0 5 -10 9 -22 10 -21 0 -22 1 -3 8 17 7 16 9 -10 16 l-30 8 29 8 c16 4 95 7
175 6 80 -2 157 0 171 3 14 3 43 3 65 -1 22 -4 58 -3 81 2z m234 -336 c11 -13
8 -15 -19 -15 -21 0 -31 5 -31 15 0 8 8 15 19 15 10 0 24 -7 31 -15z m-610
-16 c0 -13 -46 -15 -57 -4 -8 9 -2 12 23 11 19 -1 34 -4 34 -7z m885 -2 c22 0
56 1 75 2 104 5 280 -5 291 -16 11 -11 7 -13 -16 -14 -20 -1 -23 -3 -10 -6 11
-2 31 -6 45 -9 l25 -6 -25 -13 -25 -14 25 -1 c39 -1 56 -16 28 -25 -21 -7 -21
-8 11 -14 19 -3 36 -12 39 -19 2 -8 -2 -10 -14 -5 -12 4 -15 3 -10 -5 4 -7 18
-12 32 -12 33 0 31 -18 -3 -23 -24 -3 -22 -5 15 -12 47 -9 57 -25 15 -25 -22
0 -25 -2 -13 -10 8 -5 31 -10 49 -10 42 0 32 -14 -19 -27 -22 -6 -61 -6 -106
0 -58 8 -76 7 -102 -5 l-31 -16 -6 57 c-9 82 -6 79 -89 83 -74 3 -76 2 -76
-20 0 -13 -4 -20 -10 -17 -5 3 -10 31 -10 61 0 36 -4 54 -12 55 -7 0 -73 1
-145 2 l-133 1 0 26 c0 24 6 29 43 38 23 6 60 8 82 4 22 -3 58 -6 80 -5z
m-510 -25 c-3 -7 -5 -20 -5 -27 0 -7 -6 -13 -12 -12 -7 0 -24 -1 -38 -2 -21
-2 -19 -4 15 -16 l40 -13 -35 -8 c-34 -7 -34 -8 -10 -15 14 -4 -46 -7 -133 -8
-103 -1 -156 2 -152 9 4 6 -6 10 -23 10 -24 0 -31 5 -34 25 -4 19 -1 25 13 25
11 0 19 5 19 10 0 6 -11 10 -25 10 -31 0 -33 17 -2 22 12 2 104 4 205 4 152 0
182 -2 177 -14z m583 -78 c-8 -7 -149 -7 -156 1 -3 3 32 5 78 5 46 0 81 -3 78
-6z m-1103 -14 c3 -5 1 -10 -4 -10 -6 0 -11 5 -11 10 0 6 2 10 4 10 3 0 8 -4
11 -10z m917 -19 c4 -3 -11 -5 -33 -3 -28 3 -44 0 -50 -9 -7 -11 -9 -11 -9 2
0 9 3 19 7 23 8 8 74 -2 85 -13z m608 5 c0 -3 -4 -8 -10 -11 -5 -3 -10 -1 -10
4 0 6 5 11 10 11 6 0 10 -2 10 -4z m-483 -12 c-3 -3 -12 -4 -19 -1 -8 3 -5 6
6 6 11 1 17 -2 13 -5z"/>
<path d="M7968 673 c7 -3 16 -2 19 1 4 3 -2 6 -13 5 -11 0 -14 -3 -6 -6z"/>
<path d="M6978 703 c6 -2 18 -2 25 0 6 3 1 5 -13 5 -14 0 -19 -2 -12 -5z"/>
<path d="M1340 2590 c-8 -5 -12 -12 -9 -15 4 -3 12 1 19 10 14 17 11 19 -10 5z"/>
<path d="M4345 2588 c-44 -5 -161 -18 -260 -28 -99 -11 -299 -33 -445 -49
-146 -16 -326 -32 -400 -35 -159 -7 -307 -20 -480 -41 -69 -8 -161 -18 -205
-22 -109 -11 -424 -9 -455 2 -23 8 -24 7 -11 -8 7 -9 18 -17 23 -17 5 0 21 -9
36 -20 40 -28 82 -37 82 -15 0 9 -4 14 -9 11 -5 -4 -20 -2 -33 3 -19 8 -15 10
27 11 28 0 61 3 74 7 17 4 22 3 17 -5 -4 -7 -21 -12 -39 -12 -22 0 -28 -3 -20
-11 8 -8 21 -6 47 6 27 13 49 16 89 11 30 -4 121 -2 203 5 82 6 176 11 209 11
33 0 67 3 75 8 8 4 42 4 75 0 51 -6 64 -4 88 12 21 15 31 17 41 9 14 -12 50
-10 62 2 4 4 21 7 38 7 21 0 27 -3 18 -9 -20 -12 36 -21 66 -10 32 12 63 11
59 -2 -1 -6 4 -14 12 -17 8 -3 11 0 7 7 -4 6 -1 11 8 11 9 0 16 -8 16 -17 1
-17 1 -17 11 0 5 9 17 17 24 17 8 0 15 5 15 11 0 6 6 9 12 7 7 -3 19 2 27 10
13 12 16 12 26 -2 13 -16 41 -23 31 -7 -3 5 0 13 7 19 12 10 115 29 197 36 25
2 90 12 145 21 55 9 111 18 125 20 14 1 32 5 40 8 22 8 171 25 369 42 96 9
177 18 180 20 7 8 -136 3 -224 -7z"/>
<path d="M1366 2575 c-19 -15 -19 -15 6 -13 16 1 24 7 21 15 -6 15 -4 16 -27
-2z"/>
<path d="M5560 2570 c0 -5 5 -10 10 -10 6 0 10 5 10 10 0 6 -4 10 -10 10 -5 0
-10 -4 -10 -10z"/>
<path d="M808 2533 c7 -3 16 -2 19 1 4 3 -2 6 -13 5 -11 0 -14 -3 -6 -6z"/>
<path d="M1155 2530 c-3 -5 -1 -10 4 -10 6 0 11 5 11 10 0 6 -2 10 -4 10 -3 0
-8 -4 -11 -10z"/>
<path d="M7019 2510 c-1 -16 -2 -33 -3 -37 -1 -5 -6 -42 -10 -83 -4 -41 -12
-96 -17 -122 -10 -42 -14 -47 -35 -46 -15 2 -24 9 -24 19 0 11 -10 18 -30 21
-25 4 -38 -3 -75 -38 -25 -23 -45 -50 -45 -59 0 -11 -5 -15 -14 -12 -10 4 -14
0 -13 -14 1 -10 7 -20 14 -20 7 -1 18 -2 23 -3 6 0 14 -7 18 -13 5 -8 33 -13
70 -14 39 -1 66 -7 73 -15 7 -9 33 -14 70 -14 32 0 61 -4 64 -10 4 -6 19 -4
42 5 19 8 44 15 54 15 11 0 19 1 19 3 0 17 -42 211 -50 232 -10 27 -11 27 -30
10 -11 -10 -17 -21 -15 -25 3 -4 -2 -11 -11 -14 -22 -9 -24 -8 -24 10 0 14 -1
14 -16 0 -33 -34 -37 -20 -30 119 4 74 5 135 2 135 -3 0 -7 -13 -7 -30z"/>
<path d="M7246 2410 c3 -25 13 -110 22 -190 l17 -145 40 -3 c22 -2 48 -10 57
-19 12 -10 22 -12 35 -5 35 18 95 24 105 10 6 -8 7 -5 2 12 -4 13 -9 47 -13
74 -3 29 -12 51 -20 54 -10 3 -12 -3 -9 -28 6 -43 -17 -90 -45 -91 -12 0 -29
-2 -38 -4 -27 -5 -83 49 -76 74 3 12 2 21 -2 21 -4 0 -20 55 -35 123 -32 140
-47 184 -40 117z"/>
<path d="M2293 2423 c9 -2 23 -2 30 0 6 3 -1 5 -18 5 -16 0 -22 -2 -12 -5z"/>
<path d="M9268 2363 c-12 -3 -16 -14 -14 -46 l2 -42 47 -3 c37 -2 49 1 54 14
4 10 0 21 -9 28 -9 6 -17 20 -19 31 -4 20 -29 27 -61 18z"/>
<path d="M8540 2350 c0 -5 5 -10 11 -10 5 0 7 5 4 10 -3 6 -8 10 -11 10 -2 0
-4 -4 -4 -10z"/>
<path d="M1994 2340 c-72 -5 -171 -13 -220 -19 -49 -5 -118 -13 -154 -16 -36
-4 -130 -15 -210 -25 -80 -11 -170 -22 -200 -25 -30 -3 -104 -10 -164 -15 -60
-6 -112 -13 -116 -15 -4 -3 -79 -14 -166 -25 -88 -11 -166 -22 -174 -25 -12
-4 -115 -17 -305 -40 -16 -2 -87 -7 -157 -11 l-128 -7 0 -54 c0 -58 11 -66 59
-39 21 11 29 12 45 1 30 -19 86 -29 86 -16 0 20 27 12 79 -23 39 -27 51 -31
51 -19 0 21 11 11 14 -14 2 -10 -2 -21 -8 -25 -6 -4 3 -8 20 -8 34 0 54 15 54
41 0 10 6 20 13 22 9 4 9 8 -2 15 -17 12 -5 19 39 22 55 4 66 -5 62 -49 -3
-26 1 -43 13 -55 10 -9 15 -20 11 -23 -8 -8 44 -34 55 -28 4 3 4 17 -1 30 -7
18 -6 25 3 25 7 0 13 -10 14 -21 2 -28 23 -51 23 -26 0 17 25 24 34 9 2 -4 -2
-22 -10 -40 -12 -29 -15 -31 -33 -20 -11 6 -17 16 -15 20 7 11 -4 10 -27 -3
-11 -6 -19 -16 -16 -22 3 -9 -19 -12 -77 -13 -74 0 -81 -2 -78 -20 2 -14 1
-16 -6 -5 -6 7 -14 11 -20 7 -6 -3 -13 -2 -17 4 -3 5 -15 10 -26 10 -12 0 -19
7 -19 19 0 17 -4 15 -31 -10 -17 -16 -35 -26 -40 -23 -5 3 -9 1 -9 -4 0 -6 -9
-8 -19 -5 -10 3 -30 -3 -44 -11 -22 -15 -25 -15 -30 -1 -4 8 -16 15 -27 15
-12 0 -19 -4 -16 -8 3 -5 -8 -6 -25 -4 -16 2 -32 8 -35 13 -7 12 -44 12 -44 0
0 -5 19 -11 42 -15 32 -5 39 -9 28 -16 -9 -6 -16 -6 -18 0 -2 6 -15 10 -28 10
-23 0 -24 -2 -24 -84 l0 -85 34 6 c19 3 36 1 40 -6 5 -7 -3 -11 -21 -11 -15 0
-35 -5 -43 -10 -13 -9 -13 -11 0 -20 10 -6 11 -10 3 -10 -10 0 -13 -32 -13
-124 0 -120 1 -124 23 -130 34 -9 40 -7 33 9 -3 8 -1 15 4 15 6 0 10 -7 10
-15 0 -11 12 -15 45 -15 33 0 45 4 45 15 0 18 26 20 36 3 4 -6 3 -8 -4 -4 -6
3 -13 2 -17 -4 -3 -5 -1 -10 4 -10 6 0 10 -3 10 -7 -3 -21 2 -33 16 -33 23 0
18 -17 -7 -24 -23 -6 -23 -6 7 -30 l30 -24 5 21 c7 26 16 13 18 -27 2 -34 19
-48 45 -40 11 3 17 0 17 -10 0 -8 10 -17 23 -19 l22 -4 -22 -8 c-13 -4 -23
-12 -23 -19 0 -6 -5 -3 -11 7 -15 26 -29 20 -29 -13 0 -28 -2 -30 -37 -30 -76
0 -102 18 -65 46 9 7 12 14 5 14 -19 0 -43 -42 -43 -77 0 -22 -6 -36 -21 -43
-16 -9 -18 -14 -9 -25 13 -15 4 -39 -11 -30 -5 4 -9 15 -9 26 0 10 -5 19 -11
19 -5 0 -8 4 -4 9 3 5 -6 22 -20 37 -24 26 -25 29 -9 34 15 6 14 8 -7 13 -13
4 -27 7 -31 7 -5 0 -8 -218 -8 -484 0 -379 3 -485 13 -489 18 -6 48 4 41 14
-3 5 9 9 25 9 17 0 31 5 31 10 0 6 15 10 34 10 33 0 82 13 121 31 20 10 56 16
108 18 16 0 25 5 22 11 -4 6 15 9 50 7 38 -1 58 2 64 11 6 10 26 12 82 7 66
-6 72 -5 56 9 -17 13 -14 15 40 26 70 15 115 16 207 5 61 -7 69 -6 63 7 -4 13
3 17 39 20 24 2 52 0 61 -3 27 -9 53 1 53 21 0 10 -8 21 -17 23 -10 2 -1 4 20
4 21 0 40 -4 43 -9 8 -13 24 -9 24 6 0 8 9 18 20 21 11 4 18 11 15 16 -4 5
-14 5 -25 -1 -10 -5 -25 -10 -32 -10 -26 1 55 30 83 30 15 0 30 4 34 9 9 16
130 24 155 11 13 -7 55 -14 94 -15 39 -1 84 -8 99 -14 35 -14 58 -14 37 -1
-12 8 -12 10 5 11 11 0 -7 7 -40 13 -33 7 -76 20 -95 29 l-35 15 37 1 c20 1
41 7 45 14 7 12 97 36 196 53 20 3 40 10 43 15 3 5 15 9 28 9 12 0 58 9 102
20 43 11 140 27 214 35 238 29 345 50 374 74 7 6 20 9 28 6 7 -3 32 1 54 9 38
13 161 14 264 1 141 -17 281 -39 375 -60 61 -13 124 -26 140 -29 17 -3 48 -10
70 -16 22 -6 69 -17 105 -25 74 -15 782 -175 940 -212 58 -13 116 -27 130 -30
14 -3 95 -21 180 -40 85 -20 173 -39 195 -44 51 -10 240 -56 280 -68 31 -9
103 -26 260 -60 50 -11 151 -34 225 -51 131 -29 143 -30 373 -29 130 0 237 4
237 9 0 4 17 12 38 18 l37 9 -30 7 c-68 17 -68 17 0 42 16 5 11 9 -24 16 -47
11 -45 21 9 36 32 9 32 10 8 11 -61 2 -77 24 -25 36 l32 7 -33 8 c-39 9 -50
18 -31 24 53 16 55 19 17 28 -43 11 -51 28 -14 28 37 0 40 17 5 24 -33 6 -31
26 2 26 11 0 17 5 14 10 -8 13 -86 13 -122 -1 -20 -7 -45 -7 -91 2 -50 10 -72
10 -109 1 -36 -10 -58 -10 -100 -1 -41 9 -65 9 -106 0 -35 -8 -68 -8 -101 -2
-33 6 -70 5 -108 -2 -42 -8 -71 -7 -106 1 -39 9 -60 8 -102 -3 -42 -11 -63
-12 -102 -3 -37 9 -63 9 -108 0 -44 -10 -70 -10 -103 -1 -31 7 -60 8 -101 0
-39 -7 -72 -7 -102 -1 -50 12 -127 3 -117 -13 3 -5 1 -7 -5 -3 -14 9 -230 59
-392 90 -106 21 -242 52 -295 68 l-40 12 30 7 c28 6 29 7 8 14 -28 9 -20 25
13 25 13 0 24 5 24 10 0 6 -9 10 -21 10 -30 0 -15 16 23 25 l33 8 -30 7 c-27
6 -28 8 -10 14 58 22 61 25 30 25 -23 1 -27 4 -15 11 8 5 25 10 38 10 29 0 19
20 -11 21 -15 1 -9 5 18 14 35 12 37 14 13 14 -33 1 -38 21 -5 21 12 0 29 5
37 10 12 8 8 10 -15 11 -29 1 -28 2 10 14 l40 12 -35 7 c-19 4 -55 3 -80 -3
-30 -7 -60 -7 -89 0 -24 5 -58 7 -75 3 -17 -4 -152 -9 -301 -10 -148 -2 -322
-5 -385 -7 -63 -3 -131 -1 -150 4 -19 4 -57 5 -85 1 -27 -5 -67 -4 -88 0 -22
5 -60 5 -85 0 -28 -5 -66 -4 -92 2 -35 8 -40 11 -20 13 14 2 84 15 155 28 115
21 235 30 360 25 41 -2 49 -2 150 -1 33 0 71 0 85 0 33 0 441 11 460 12 8 1
31 1 50 1 93 -3 269 4 276 11 4 4 -2 7 -14 7 -35 0 -25 20 11 21 21 1 25 3 12
6 -37 9 -40 23 -4 23 l34 1 -25 13 -25 14 30 4 30 4 -25 11 -25 12 28 0 c33 1
36 18 5 24 -22 4 -22 4 2 6 14 1 32 6 40 11 12 8 11 10 -7 10 -12 0 -25 5 -28
10 -3 6 4 10 17 10 13 0 30 5 38 10 13 8 12 10 -4 10 -10 0 -34 9 -52 21 -19
11 -34 16 -34 11 0 -6 6 -13 13 -15 7 -3 5 -6 -5 -6 -23 -1 -24 35 -1 43 9 4
111 18 227 31 301 36 350 42 456 64 95 19 260 49 398 72 39 7 70 14 68 16 -8
8 -325 -41 -471 -73 -153 -34 -352 -61 -573 -79 -35 -3 -93 -12 -128 -19 -81
-17 -83 -14 -55 86 25 90 26 121 4 158 -16 27 -15 29 11 61 24 28 27 40 24 83
l-3 50 85 17 c47 10 113 17 147 17 63 0 83 5 83 24 0 7 -5 6 -15 -2 -8 -6 -18
-9 -23 -7 -4 3 -14 2 -22 -3 -9 -5 -19 -5 -27 2 -7 6 -23 8 -35 4 -25 -6 -98
12 -98 25 0 4 -12 -3 -27 -17 -20 -18 -29 -22 -32 -12 -2 7 -11 18 -20 25 -13
10 -18 9 -28 -4 -12 -16 -14 -15 -26 2 -8 10 -19 15 -25 11 -6 -3 -12 -1 -15
6 -2 7 -3 1 -1 -14 3 -24 0 -28 -21 -28 -21 0 -25 5 -25 30 0 32 -16 41 -23
13 -3 -10 -5 -5 -6 12 -2 42 -12 75 -22 75 -5 0 -9 -8 -9 -18 0 -13 -9 -18
-30 -20 -16 -1 -30 2 -30 8 0 5 -15 10 -34 10 -28 0 -35 4 -39 23 -4 21 -4 21
-6 1 -1 -16 -8 -21 -27 -21 -24 0 -43 21 -31 34 3 3 21 9 39 13 l33 7 -27 8
c-18 4 -38 2 -58 -9 -18 -9 -43 -13 -59 -10 -26 6 -28 4 -29 -36 -2 -38 -19
-70 -39 -70 -4 0 -14 -9 -21 -20 -12 -19 -13 -19 -30 -2 -15 15 -16 22 -6 52
14 38 3 63 -18 42 -9 -9 -9 -12 -1 -12 7 0 11 -9 10 -20 -3 -45 -27 -10 -32
48 -2 17 1 32 6 32 5 0 9 -7 9 -15 0 -8 5 -15 12 -15 6 0 8 3 5 7 -12 11 13
31 33 26 22 -6 43 27 33 53 -5 14 -3 16 12 11 9 -4 23 -3 30 3 12 10 24 -9 29
-45 0 -5 11 -11 24 -13 16 -2 22 2 22 15 0 14 2 15 9 4 5 -8 11 -9 15 -3 3 6
2 13 -4 17 -5 3 -10 13 -10 22 0 12 7 14 30 10 25 -5 30 -3 30 12 0 27 33 54
48 39 6 -6 15 -8 19 -4 4 4 1 11 -7 16 -9 6 -10 10 -3 10 6 0 18 -6 25 -12 27
-25 98 -31 106 -9 3 8 0 11 -6 7 -6 -3 -13 -2 -17 4 -3 5 -1 10 6 10 9 0 9 3
0 14 -9 10 -8 15 4 19 8 4 12 13 9 22 -8 20 3 19 24 -2 16 -16 17 -15 20 4 4
24 40 37 59 21 10 -8 13 -7 13 5 0 8 9 17 20 20 13 3 20 0 20 -9 0 -23 28 -16
46 10 9 15 42 35 82 51 37 14 78 32 92 40 23 13 19 14 -60 16 l-85 1 82 12
c45 6 86 15 90 20 4 4 -3 6 -16 4 -19 -2 -25 2 -26 19 -2 23 -46 66 -55 55 -3
-4 -14 -8 -25 -10 -64 -8 -91 -18 -107 -36 -9 -12 -17 -16 -18 -10 0 6 -19 9
-47 8 -39 -2 -52 -8 -70 -31 -19 -23 -23 -25 -23 -9 0 16 -5 18 -39 12 -24 -3
-42 -2 -46 4 -4 6 -15 8 -26 5 -13 -5 -26 1 -39 17 l-20 23 -24 -29 c-16 -19
-26 -24 -31 -16 -4 6 -13 9 -21 6 -8 -3 -14 0 -14 7 0 8 -4 6 -10 -3 -6 -10
-10 -11 -10 -2 0 19 -20 14 -20 -5 -1 -17 -1 -17 -11 0 -11 18 -49 24 -49 6 0
-6 -9 -4 -21 5 -23 15 -47 12 -65 -10 -9 -12 -16 -11 -44 2 -27 14 -34 14 -41
3 -6 -11 -11 -11 -20 -2 -8 8 -18 9 -30 2 -10 -5 -30 -7 -43 -3 -14 3 -39 -1
-61 -12 -26 -12 -39 -14 -47 -6 -12 12 -47 -1 -61 -24 -8 -14 -74 -9 -92 7
-13 12 -63 11 -67 -1 -2 -6 -43 -13 -91 -16 -74 -4 -87 -2 -87 11 0 13 -4 14
-20 5 -11 -6 -20 -17 -20 -25 0 -19 -14 -19 -30 0 -11 14 -17 12 -43 -15 -33
-34 -58 -35 -69 -5 -5 12 -6 2 -4 -23 3 -28 0 -42 -7 -39 -6 2 -12 25 -15 53
-5 59 -12 72 -12 21 0 -28 -4 -37 -17 -38 -16 0 -16 -1 -2 -7 13 -6 14 -12 5
-32 -6 -14 -18 -25 -26 -25 -8 1 -19 -1 -24 -3 -19 -10 -163 -8 -186 3 -14 6
-33 10 -42 8 -11 -3 -18 1 -18 10 0 8 -9 17 -20 20 -23 6 -27 27 -5 27 8 0 15
7 15 15 0 9 10 15 28 16 21 1 19 3 -13 9 -21 4 -41 13 -43 19 -2 6 -10 11 -18
11 -9 0 -13 4 -10 9 9 14 -4 41 -20 41 -9 0 -14 12 -14 35 0 19 -5 35 -11 35
-6 0 -9 -7 -6 -14 4 -9 1 -13 -6 -11 -7 3 -29 -11 -49 -30 -37 -36 -56 -37
-86 -8 -11 11 -11 13 0 13 10 0 9 3 -2 10 -13 9 -13 11 0 20 13 8 12 10 -3 10
-10 0 -16 4 -13 9 9 14 -4 40 -18 35 -7 -3 -29 7 -50 21 -20 14 -40 24 -44 23
-4 0 -66 -4 -138 -8z m127 -122 c3 -199 -2 -282 -17 -305 -8 -12 -14 -29 -14
-37 0 -25 15 -22 -290 -61 -69 -9 -170 -23 -225 -31 -203 -30 -469 -64 -494
-64 -45 1 2 20 61 25 175 16 299 37 364 62 12 4 15 3 10 -5 -13 -21 4 -13 29
14 18 20 25 23 25 11 0 -19 16 -31 30 -22 6 4 1 18 -11 35 -24 31 -39 30 -79
-7 -32 -30 -42 -29 -34 2 5 20 2 25 -12 25 -9 0 -26 7 -36 17 -17 15 -18 15
-18 -2 0 -13 -5 -16 -22 -11 -13 3 -28 6 -35 6 -6 0 -13 8 -15 17 -3 16 -6 15
-26 -5 -23 -23 -24 -23 -37 -5 -13 17 -14 16 -24 -9 -7 -18 -17 -26 -31 -25
-11 1 -20 5 -20 9 0 4 -9 8 -20 8 -11 0 -20 -4 -20 -10 0 -5 -6 -10 -14 -10
-8 0 -17 -6 -20 -12 -4 -7 -4 -3 -2 10 2 12 0 22 -5 22 -5 0 -9 -4 -9 -10 0
-5 -4 -10 -10 -10 -5 0 -10 6 -10 13 0 10 -16 12 -62 10 -74 -4 -104 -4 -115
-1 -4 2 -9 -1 -11 -7 -7 -20 -47 -32 -96 -28 -63 5 -79 10 -71 23 3 5 2 10 -4
10 -6 0 -15 10 -22 22 -10 18 -9 20 4 15 11 -4 14 -2 10 9 -3 7 -16 14 -29 14
-47 0 -54 70 -11 118 13 13 16 22 8 22 -7 0 -11 7 -9 16 3 17 95 57 110 48 4
-3 8 -2 8 3 0 7 55 10 63 3 1 -1 12 -3 24 -4 28 -3 43 -17 26 -23 -22 -8 -14
-20 14 -26 42 -8 58 4 59 45 1 32 34 88 34 58 0 -7 8 -9 19 -5 11 3 34 7 53 9
18 2 40 6 48 10 8 3 35 8 60 10 25 3 65 10 90 17 25 6 56 13 69 14 13 2 54 10
90 19 36 8 156 25 266 37 110 12 227 25 260 29 33 4 79 8 103 8 l42 2 1 -112z
m2152 -65 c-7 -2 -19 -2 -25 0 -7 3 -2 5 12 5 14 0 19 -2 13 -5z m-103 -13 c0
-5 -5 -10 -11 -10 -5 0 -7 5 -4 10 3 6 8 10 11 10 2 0 4 -4 4 -10z m-1842 -18
c2 -7 -2 -10 -12 -6 -9 3 -16 11 -16 16 0 13 23 5 28 -10z m1992 8 c-30 -4
-152 -23 -270 -43 -277 -46 -438 -69 -452 -65 -6 2 101 21 238 42 137 21 290
46 339 56 50 10 115 18 145 17 l55 0 -55 -7z m-403 -36 c-3 -3 -12 -4 -19 -1
-8 3 -5 6 6 6 11 1 17 -2 13 -5z m-987 -29 c0 -10 -9 -15 -27 -14 -17 1 -21 3
-10 6 9 2 17 9 17 14 0 5 5 9 10 9 6 0 10 -7 10 -15z m-2293 -47 c-3 -8 -6 -5
-6 6 -1 11 2 17 5 13 3 -3 4 -12 1 -19z m2926 -5 c-7 -2 -19 -2 -25 0 -7 3 -2
5 12 5 14 0 19 -2 13 -5z m-66 -9 c-3 -3 -12 -4 -19 -1 -8 3 -5 6 6 6 11 1 17
-2 13 -5z m-2860 -49 c-2 -47 -7 -54 -26 -31 -14 17 -3 76 14 76 9 0 13 -14
12 -45z m2796 38 c-7 -2 -19 -2 -25 0 -7 3 -2 5 12 5 14 0 19 -2 13 -5z m-54
-8 c-5 -4 -168 -27 -506 -71 -105 -13 -215 -29 -244 -34 -63 -12 -72 -12 -39
1 41 17 163 37 360 59 102 11 228 27 280 34 104 15 156 18 149 11z m-3022 -27
c-3 -8 -6 -5 -6 6 -1 11 2 17 5 13 3 -3 4 -12 1 -19z m2183 -88 c-14 -4 -34
-8 -45 -8 l-20 -1 20 9 c11 5 31 8 45 8 l25 0 -25 -8z m1290 0 c0 -5 -7 -10
-15 -10 -8 0 -15 5 -15 10 0 6 7 10 15 10 8 0 15 -4 15 -10z m-1487 -7 c-7 -2
-19 -2 -25 0 -7 3 -2 5 12 5 14 0 19 -2 13 -5z m97 3 c0 -3 -4 -8 -10 -11 -5
-3 -10 -1 -10 4 0 6 5 11 10 11 6 0 10 -2 10 -4z m-380 -40 c-14 -8 -74 -19
-135 -26 -60 -6 -233 -29 -384 -51 -151 -21 -283 -39 -295 -38 -52 3 429 76
754 114 30 4 57 9 59 11 2 2 9 4 15 4 6 -1 0 -7 -14 -14z m1619 -62 c3 -16 1
-17 -13 -5 -19 16 -21 34 -3 29 6 -3 14 -13 16 -24z m-109 6 c0 -5 -4 -10 -10
-10 -5 0 -10 5 -10 10 0 6 5 10 10 10 6 0 10 -4 10 -10z m-70 -8 c0 -13 -12
-22 -22 -16 -10 6 -1 24 13 24 5 0 9 -4 9 -8z m108 -37 c8 -16 8 -26 1 -31 -6
-3 3 -18 20 -33 17 -15 31 -36 31 -47 -1 -18 -1 -18 -14 -1 -15 19 -26 22 -26
6 0 -6 -7 -17 -15 -26 -12 -11 -13 -19 -5 -28 6 -7 7 -16 2 -19 -16 -9 -52 72
-43 97 4 12 6 28 4 35 -3 8 4 16 16 19 27 7 27 23 1 23 -11 0 -20 7 -20 15 0
24 36 17 48 -10z m-2568 -5 c0 -5 -12 -10 -27 -9 l-28 1 25 8 c14 4 26 8 28 9
1 1 2 -3 2 -9z m-95 -21 c-22 -4 -71 -9 -110 -12 l-70 -5 60 9 c33 6 76 14 95
18 19 4 42 5 50 2 8 -3 -3 -8 -25 -12z m963 1 c2 0 1 -4 -3 -9 -3 -5 3 -12 12
-14 87 -24 163 -30 163 -14 0 8 3 8 10 1 6 -6 13 -63 17 -127 3 -64 10 -117
14 -117 5 0 7 12 4 28 -11 72 -15 222 -5 222 5 0 10 -12 10 -28 0 -33 27 -75
42 -66 6 4 5 10 -3 15 -9 6 2 9 31 8 25 -1 57 2 71 6 33 8 38 0 41 -59 0 -26
5 -42 9 -35 4 6 12 8 18 5 6 -4 11 -2 11 3 0 6 11 11 25 11 18 0 23 4 19 15
-4 11 -2 13 9 9 8 -3 31 -1 50 4 28 8 35 7 31 -3 -4 -10 1 -12 17 -8 18 5 21
3 16 -10 -4 -12 -1 -17 11 -18 10 0 12 -3 5 -6 -7 -2 -13 -10 -13 -16 0 -6
-10 -21 -22 -34 l-21 -23 21 0 c33 0 26 -25 -10 -35 -26 -8 -32 -16 -35 -44
-4 -46 -43 -73 -43 -31 0 14 -7 20 -21 20 -12 0 -23 -8 -26 -20 -7 -25 -31
-26 -40 -2 -6 13 -10 7 -18 -23 -10 -32 -17 -41 -38 -43 -22 -3 -27 1 -27 19
0 17 -4 20 -21 16 -15 -4 -29 3 -47 21 -16 18 -23 21 -19 10 4 -10 2 -18 -3
-18 -6 0 -10 -18 -10 -39 0 -22 -4 -42 -9 -45 -5 -3 -7 21 -6 54 1 33 -2 63
-6 66 -5 3 -9 -21 -9 -53 0 -70 -17 -107 -50 -111 -16 -2 -21 0 -12 6 7 5 -9
8 -42 7 -37 0 -61 -6 -74 -18 -13 -12 -22 -15 -27 -8 -3 6 -12 11 -18 11 -7 0
-6 -4 3 -10 17 -11 10 -13 -14 -4 -9 3 -13 10 -10 15 3 5 -2 6 -10 3 -8 -3
-14 -11 -12 -17 1 -7 1 -9 -1 -4 -7 12 -30 8 -43 -7 -6 -8 -19 -12 -27 -9 -12
5 -14 3 -8 -7 6 -10 4 -12 -8 -7 -9 3 -19 2 -22 -4 -4 -5 -19 -8 -33 -7 -15 1
-34 -2 -42 -8 -8 -5 -28 -10 -45 -11 -16 -1 -47 -4 -67 -6 -21 -2 -38 0 -38 5
0 5 -9 6 -20 3 -13 -4 -20 -2 -20 6 0 7 -7 4 -15 -7 -12 -16 -16 -17 -24 -5
-8 12 -12 12 -26 -2 -9 -10 -26 -17 -38 -17 -16 0 -18 3 -8 9 8 5 -3 8 -32 7
-25 0 -43 -4 -41 -7 5 -8 -76 -42 -83 -35 -4 3 -2 6 3 6 13 0 12 89 -1 98 -13
9 -18 82 -5 82 18 0 10 32 -9 37 -13 3 -18 10 -14 21 4 8 2 13 -3 11 -5 -3
-21 -11 -36 -19 -33 -16 -34 -23 -10 -47 23 -22 35 -53 22 -53 -6 0 -8 -24 -6
-58 5 -66 -4 -87 -36 -87 -13 0 -22 -5 -20 -13 1 -8 -8 -12 -27 -10 -16 1 -28
5 -25 9 2 5 -15 9 -38 11 -33 2 -43 7 -43 21 0 10 -7 22 -15 27 -13 8 -13 10
1 10 9 0 16 7 16 15 0 8 -4 15 -8 15 -5 0 -6 7 -2 16 4 12 1 15 -13 12 -20 -4
-26 -28 -9 -40 5 -4 -2 -8 -18 -8 -20 0 -30 -7 -37 -25 -10 -27 -20 -31 -37
-14 -7 7 -12 6 -16 -5 -4 -10 -1 -16 8 -16 8 0 15 -4 15 -10 0 -12 -3 -12 -24
-4 -10 4 -16 18 -16 41 0 31 -2 34 -15 23 -13 -11 -14 -10 -9 4 4 11 1 16 -10
16 -11 0 -16 -9 -16 -27 0 -16 -4 -34 -9 -42 -11 -16 -24 -6 -55 41 -13 20
-27 28 -47 28 -27 0 -29 3 -29 40 0 37 3 41 30 47 17 3 30 9 30 13 0 12 -51
22 -63 12 -7 -5 -25 -12 -41 -16 -22 -6 -27 -4 -23 7 3 8 0 20 -6 27 -10 10
-6 11 16 6 30 -7 36 7 9 24 -15 9 -14 10 5 5 17 -5 21 -3 17 8 -2 7 1 19 9 26
12 9 16 7 20 -9 6 -24 62 -29 71 -5 3 8 12 12 21 9 8 -3 15 -1 15 5 0 6 -7 11
-15 11 -19 0 -19 14 -2 32 8 7 12 19 9 26 -2 6 1 12 7 12 6 0 11 7 11 15 0 22
18 18 25 -5 3 -11 11 -20 16 -20 5 0 7 -11 5 -24 -4 -20 0 -25 24 -28 16 -2
27 -1 24 4 -3 4 -12 8 -19 8 -11 0 -12 6 -5 25 6 16 6 25 0 25 -13 0 -13 37 0
45 6 3 7 -1 4 -10 -5 -13 -2 -15 22 -9 16 4 38 17 48 28 15 17 18 18 13 4 -4
-12 -1 -18 9 -18 8 0 12 5 8 11 -5 8 -1 8 14 0 28 -15 32 -14 32 7 0 9 7 26
15 36 8 11 15 28 15 38 0 23 19 23 27 1 4 -10 11 -21 16 -24 12 -9 57 13 57
29 0 16 15 15 34 -3 21 -22 30 -19 43 15 10 26 16 30 40 27 21 -3 29 -10 31
-29 3 -24 4 -24 52 20 28 25 50 53 50 64 0 22 16 23 37 2 14 -13 14 -17 2 -26
-10 -6 -7 -7 11 -3 38 11 48 25 22 31 -35 10 -17 20 37 22 28 0 59 6 70 11 29
16 78 13 85 -4 3 -8 16 -15 28 -15 23 1 23 1 3 16 -19 15 -18 16 18 12 20 -2
37 -1 37 3 0 16 35 19 46 5 15 -21 35 -20 27 0 -5 14 -3 15 15 5 14 -7 33 -8
59 -2 21 5 30 9 20 10 -10 1 -16 5 -12 10 3 6 18 6 38 0 17 -5 33 -9 35 -9z
m1960 -4 c-2 -19 -5 -22 -15 -14 -10 8 -10 14 -2 24 16 20 19 18 17 -10z
m-2733 -2 c-49 -7 -119 -15 -155 -18 l-65 -5 55 10 c87 16 172 26 215 26 22 0
0 -5 -50 -13z m2033 -9 c-12 -27 -28 -34 -28 -12 0 14 20 37 32 37 4 0 2 -11
-4 -25z m516 -20 c-5 -12 -10 -12 -27 -3 -21 11 -21 11 -2 18 25 9 36 4 29
-15z m466 15 c0 -5 -4 -10 -10 -10 -5 0 -10 5 -10 10 0 6 5 10 10 10 6 0 10
-4 10 -10z m-3403 -6 c-3 -3 -12 -4 -19 -1 -8 3 -5 6 6 6 11 1 17 -2 13 -5z
m-133 -13 c7 -10 -112 -27 -121 -17 -4 3 9 6 28 7 19 0 43 4 54 9 27 11 33 12
39 1z m69 2 c-7 -2 -19 -2 -25 0 -7 3 -2 5 12 5 14 0 19 -2 13 -5z m215 0
c-10 -2 -26 -2 -35 0 -10 3 -2 5 17 5 19 0 27 -2 18 -5z m-80 -10 c-10 -2 -26
-2 -35 0 -10 3 -2 5 17 5 19 0 27 -2 18 -5z m2303 -30 c-9 -16 -10 -14 -11 12
0 21 3 26 11 18 8 -8 8 -16 0 -30z m-2368 20 c-7 -2 -19 -2 -25 0 -7 3 -2 5
12 5 14 0 19 -2 13 -5z m-368 -13 c3 -6 -4 -10 -17 -10 -18 0 -20 2 -8 10 19
12 18 12 25 0z m92 4 c-3 -3 -12 -4 -19 -1 -8 3 -5 6 6 6 11 1 17 -2 13 -5z
m-277 -24 c0 -11 -61 -24 -87 -17 -10 3 -5 5 14 6 17 0 35 6 38 11 8 13 35 13
35 0z m117 4 c-3 -3 -12 -4 -19 -1 -8 3 -5 6 6 6 11 1 17 -2 13 -5z m2687 -2
c-11 -7 -26 -51 -29 -85 -3 -29 -15 -32 -15 -4 0 27 -10 32 -52 29 -25 -2 -22
7 8 35 16 15 33 22 44 18 10 -3 21 -1 25 5 3 5 12 10 18 10 8 0 9 -2 1 -8z
m138 -24 c15 -8 22 -20 20 -32 -3 -16 0 -18 25 -13 15 4 22 4 16 1 -7 -3 -13
-12 -13 -20 0 -21 -12 -17 -40 14 -58 61 -60 77 -8 50z m-112 -28 c0 -5 -4
-10 -9 -10 -6 0 -13 5 -16 10 -3 6 1 10 9 10 9 0 16 -4 16 -10z m-2942 -7
c-10 -2 -26 -2 -35 0 -10 3 -2 5 17 5 19 0 27 -2 18 -5z m2692 -8 c0 -8 5 -15
11 -15 6 0 4 -7 -5 -15 -8 -8 -17 -15 -19 -15 -8 0 -16 43 -11 52 9 13 24 9
24 -7z m-204 -31 c-4 -9 -9 -15 -11 -12 -3 3 -3 13 1 22 4 9 9 15 11 12 3 -3
3 -13 -1 -22z m40 -1 c-10 -10 -19 5 -10 18 6 11 8 11 12 0 2 -7 1 -15 -2 -18z
m524 18 c0 -12 -28 -22 -34 -12 -3 5 -3 11 1 15 9 9 33 7 33 -3z m-193 -7 c-3
-3 -12 -4 -19 -1 -8 3 -5 6 6 6 11 1 17 -2 13 -5z m1061 -59 c9 -33 19 -49 38
-57 19 -9 24 -17 19 -32 -19 -64 -16 -102 14 -178 17 -42 31 -83 31 -91 0 -24
-22 -35 -111 -57 -133 -33 -852 -150 -864 -141 -5 5 -32 12 -60 16 -46 8 -48
9 -20 15 29 6 29 6 6 12 -13 4 -46 2 -74 -4 -43 -10 -50 -10 -58 5 -5 9 -16
14 -24 11 -8 -4 -15 -1 -15 5 0 7 -9 9 -22 6 -13 -3 -40 3 -63 15 -21 11 -46
20 -55 20 -28 0 -110 31 -105 40 3 4 -3 6 -12 4 -24 -6 -40 33 -45 109 -3 33
-10 62 -17 66 -34 22 29 36 574 130 127 22 282 49 345 60 63 11 160 27 215 36
200 32 268 45 273 50 12 12 18 3 30 -40z m-925 8 c-8 -51 -16 -60 -23 -28 -6
28 4 55 20 55 4 0 5 -12 3 -27z m-356 -25 c-3 -7 -5 -2 -5 12 0 14 2 19 5 13
2 -7 2 -19 0 -25z m-109 -16 c2 -12 -2 -22 -8 -22 -7 0 -10 7 -6 15 3 8 1 15
-4 15 -5 0 -12 -10 -16 -22 l-7 -23 -10 23 c-8 18 -7 26 4 33 22 14 44 6 47
-19z m1656 -64 c18 -25 7 -44 -19 -34 -11 4 -15 12 -11 23 4 9 1 20 -6 25 -10
6 -9 8 4 8 9 0 24 -10 32 -22z m-3629 2 c3 -5 -1 -10 -10 -10 -9 0 -13 5 -10
10 3 6 8 10 10 10 2 0 7 -4 10 -10z m-35 -20 c0 -5 -4 -10 -10 -10 -5 0 -10 5
-10 10 0 6 5 10 10 10 6 0 10 -4 10 -10z m-316 -29 c3 -5 -6 -16 -20 -26 l-25
-16 16 25 c19 29 21 30 29 17z m193 -21 c-4 -14 0 -20 11 -21 11 0 9 -4 -7
-10 -18 -7 -27 -6 -32 3 -5 8 -3 14 6 16 8 2 15 10 15 18 0 8 3 14 6 14 4 0 4
-9 1 -20z m1868 -138 c-7 -32 -18 -69 -26 -83 -7 -13 -12 -27 -11 -31 1 -5 -3
-8 -9 -8 -6 0 -9 -7 -5 -15 4 -11 -2 -15 -24 -15 -17 0 -29 -3 -29 -7 4 -23
-5 -30 -42 -31 -23 -1 -58 -6 -78 -11 -20 -4 -64 -8 -98 -7 -45 1 -63 -2 -63
-11 0 -9 -19 -13 -64 -13 -45 0 -65 -4 -69 -14 -3 -7 -15 -16 -26 -19 -28 -7
-27 1 2 13 20 8 20 9 2 9 -11 0 -26 -3 -33 -8 -12 -7 -59 -3 -157 14 -23 4
-27 3 -15 -6 12 -8 10 -9 -10 -4 -14 4 -36 8 -50 10 -16 3 -17 2 -5 -1 31 -9
45 -28 15 -20 -14 3 -41 6 -60 7 -29 0 -31 2 -15 9 13 6 15 9 5 9 -8 0 -26 -6
-39 -13 -24 -13 -24 -13 20 -30 24 -9 31 -13 14 -9 -16 3 -52 9 -80 13 -27 4
-40 8 -27 9 33 2 28 31 -5 30 -25 0 -26 -1 -8 -9 19 -8 19 -9 -2 -9 -12 -1
-28 -4 -37 -7 -9 -3 -16 -1 -16 6 0 6 4 9 9 5 5 -3 12 -1 16 5 14 22 -39 8
-60 -16 -25 -29 -46 -26 -38 6 4 15 0 20 -16 20 -11 0 -20 6 -18 13 1 7 -10
13 -26 15 -15 2 -27 8 -27 13 0 5 -8 9 -17 9 -33 0 2 17 67 33 83 21 331 66
391 71 25 3 66 10 90 16 24 7 69 16 99 20 30 5 96 16 145 25 94 17 288 51 365
65 82 14 78 17 65 -48z m-1845 -2 c0 -5 -4 -10 -9 -10 -6 0 -13 5 -16 10 -3 6
1 10 9 10 9 0 16 -4 16 -10z m-75 -60 c3 -6 -1 -13 -10 -16 -19 -8 -30 0 -20
15 8 14 22 14 30 1z m472 -16 c-3 -3 -12 -4 -19 -1 -8 3 -5 6 6 6 11 1 17 -2
13 -5z m-17 -48 c0 -15 -24 -28 -34 -19 -12 12 -6 22 11 16 11 -4 14 -3 9 5
-4 7 -2 12 3 12 6 0 11 -6 11 -14z m3258 -22 c32 -9 27 -24 -9 -24 -17 0 -28
-4 -24 -10 3 -5 15 -10 26 -10 33 0 10 -20 -24 -21 -24 -1 -26 -3 -9 -6 31 -6
28 -23 -5 -24 l-28 0 24 -10 c13 -5 21 -12 18 -15 -9 -9 -280 -12 -304 -3 -14
5 -44 4 -75 -2 -37 -8 -61 -8 -89 0 -28 9 -50 9 -82 1 -27 -7 -56 -8 -77 -3
-31 8 -24 11 81 33 81 18 138 24 198 22 46 -1 93 1 105 4 20 7 20 7 -4 17 -24
9 -23 10 20 19 199 38 222 41 258 32z m-3918 -34 c0 -9 -61 -22 -68 -15 -3 3
2 5 10 5 9 0 18 7 22 15 5 14 36 10 36 -5z m-52 -31 c15 2 22 -3 22 -14 0 -12
-6 -16 -20 -12 -10 3 -20 1 -22 -4 -2 -6 -12 -3 -22 4 -20 15 -13 43 7 30 7
-4 22 -6 35 -4z m1222 -93 c0 -2 -9 -6 -20 -9 -11 -3 -18 -1 -14 4 5 9 34 13
34 5z m2571 -136 c10 0 19 -4 19 -10 0 -5 -11 -10 -25 -10 -31 0 -33 -17 -2
-23 20 -3 19 -4 -8 -11 -54 -14 -62 -20 -32 -24 33 -4 26 -22 -9 -22 -30 0
-32 -17 -1 -23 15 -3 9 -6 -23 -12 l-45 -9 35 -9 35 -10 -50 -9 c-40 -6 -72
-3 -162 20 -112 27 -139 41 -85 43 23 2 24 2 5 6 -33 6 -28 23 7 23 17 0 30 5
30 11 0 9 -19 10 -67 4 -38 -4 -79 -7 -93 -6 -14 0 -56 1 -95 1 -70 0 -285 39
-285 51 0 6 320 11 450 8 117 -2 339 7 347 15 4 4 13 4 21 1 7 -3 22 -5 33 -5z
m-2456 -325 c29 -13 29 -13 5 -14 -14 0 -38 6 -55 14 -29 13 -29 13 -5 14 14
0 39 -6 55 -14z m4603 -125 c14 -7 11 -10 -15 -16 -38 -7 -44 -24 -10 -24 12
0 29 -5 37 -10 12 -7 8 -11 -18 -16 -45 -9 -48 -21 -7 -28 43 -8 38 -21 -12
-31 l-38 -8 43 -9 c52 -11 54 -23 5 -35 l-38 -10 43 -7 c52 -10 54 -21 5 -31
l-38 -8 40 -12 c56 -18 33 -18 -34 0 -31 8 -105 26 -166 40 -167 39 -185 45
-185 55 0 6 12 10 28 11 24 0 25 1 7 9 -11 5 -29 11 -40 15 -16 5 -17 8 -5 15
8 6 29 10 45 11 26 1 25 2 -15 13 -36 10 -57 9 -100 -1 -41 -9 -65 -9 -98 -1
-26 6 -64 8 -95 3 -74 -11 -101 -8 -166 15 -32 11 -76 23 -98 26 -22 3 -58 11
-79 19 -34 12 -36 14 -19 22 11 4 47 7 80 6 33 -1 102 -2 154 -2 52 -1 110 -5
130 -11 26 -7 51 -6 87 4 38 10 63 11 102 3 38 -8 68 -8 115 2 49 10 74 10
107 1 42 -11 124 -5 116 9 -7 10 111 -6 132 -19z m-675 -97 c-7 -2 -19 -2 -25
0 -7 3 -2 5 12 5 14 0 19 -2 13 -5z m122 -23 c13 -6 15 -9 5 -9 -8 0 -22 4
-30 9 -18 12 -2 12 25 0z m100 -20 c27 -7 27 -8 5 -8 -14 0 -38 4 -55 8 -27 7
-27 8 -5 8 14 0 39 -4 55 -8z"/>
<path d="M954 2025 c5 -19 2 -25 -11 -26 -14 0 -15 -2 -3 -6 8 -4 21 -14 28
-25 7 -10 16 -18 20 -18 12 0 6 54 -9 78 -19 30 -33 28 -25 -3z"/>
<path d="M1597 1863 c-4 -3 -7 -11 -7 -17 0 -6 5 -5 12 2 6 6 9 14 7 17 -3 3
-9 2 -12 -2z"/>
<path d="M694 1279 c-4 -7 -22 -9 -48 -5 -38 7 -40 6 -21 -8 11 -9 25 -16 31
-16 15 0 64 24 64 33 0 11 -18 8 -26 -4z"/>
<path d="M1090 1249 c0 -5 5 -7 10 -4 6 3 10 8 10 11 0 2 -4 4 -10 4 -5 0 -10
-5 -10 -11z"/>
<path d="M1478 1133 c7 -3 16 -2 19 1 4 3 -2 6 -13 5 -11 0 -14 -3 -6 -6z"/>
<path d="M1318 1113 c7 -3 16 -2 19 1 4 3 -2 6 -13 5 -11 0 -14 -3 -6 -6z"/>
<path d="M3098 943 c6 -2 18 -2 25 0 6 3 1 5 -13 5 -14 0 -19 -2 -12 -5z"/>
<path d="M8624 2322 c4 -7 1 -12 -8 -12 -17 0 -22 -15 -7 -24 5 -3 12 1 15 10
3 8 10 12 16 9 6 -4 8 -11 5 -16 -4 -5 -2 -9 4 -9 21 0 18 16 -7 34 -14 11
-22 14 -18 8z"/>
<path d="M9510 2323 c59 -9 72 -15 90 -46 11 -17 20 -42 20 -54 0 -13 5 -23
10 -23 14 0 12 27 -5 60 -23 44 -62 70 -104 69 -26 -1 -29 -3 -11 -6z"/>
<path d="M9460 2305 c-7 -8 -16 -13 -20 -10 -5 3 -12 0 -16 -6 -5 -8 -3 -9 6
-4 10 6 12 2 7 -16 -4 -13 -7 -33 -8 -44 -1 -11 -5 -4 -9 15 l-7 35 -2 -31 c0
-16 6 -39 14 -50 13 -18 14 -17 15 16 0 20 9 52 19 73 20 40 21 46 1 22z"/>
<path d="M9750 2246 c0 -17 -12 -49 -25 -71 -22 -35 -25 -52 -26 -140 0 -95
-1 -98 -14 -65 -7 19 -14 47 -14 61 -1 15 -9 33 -18 40 -11 10 -14 10 -9 2 4
-7 2 -13 -3 -13 -6 0 -11 -9 -11 -21 0 -19 -5 -20 -82 -18 -80 2 -114 12 -103
29 3 5 1 11 -4 15 -6 3 -15 -13 -21 -35 -6 -22 -25 -56 -42 -75 -17 -20 -28
-38 -25 -42 4 -3 86 -9 184 -14 165 -7 161 -7 -57 -3 -277 6 -350 11 -387 25
l-28 10 28 -28 c22 -22 29 -25 36 -14 6 10 28 -7 87 -66 140 -142 150 -164 97
-214 -21 -18 -30 -25 -20 -13 19 23 23 44 5 26 -13 -13 -32 -16 -24 -4 2 4 1
14 -4 22 -6 10 -16 7 -47 -17 -21 -17 -83 -58 -138 -93 -145 -91 -304 -203
-304 -216 -1 -6 9 -15 21 -21 22 -10 22 -10 -12 -29 -19 -10 -39 -17 -45 -15
-21 7 -68 2 -78 -8 -6 -6 -28 -11 -49 -11 -34 0 -38 -2 -34 -23 19 -92 19 -93
-21 -110 -34 -14 -35 -15 -8 -11 l30 5 -23 -20 -23 -20 23 -5 c13 -3 37 -7 53
-9 l30 -3 -25 -12 c-22 -10 -19 -11 28 -10 36 1 56 7 62 17 5 9 10 11 10 4 0
-6 12 -13 28 -15 15 -2 26 -8 25 -15 -2 -8 4 -10 14 -6 11 4 13 8 5 11 -7 2
-10 8 -7 12 3 5 13 6 22 3 11 -4 14 -3 9 5 -5 8 1 12 16 13 25 1 19 4 -26 14
-22 5 -26 9 -16 15 10 6 7 10 -15 16 -26 6 -27 8 -10 15 17 7 16 8 -7 8 -34 1
-46 18 -16 24 16 3 12 5 -12 6 -63 3 -11 21 60 21 36 0 115 2 175 5 61 3 123
5 138 5 17 0 26 4 22 10 -3 5 -2 10 4 10 5 0 11 -5 13 -11 3 -10 133 -15 238
-10 23 2 23 3 -9 16 -34 15 -156 21 -148 8 5 -7 -50 -8 -63 -2 -10 5 -200 4
-200 -1 0 -3 -37 -2 -82 1 -46 4 -104 4 -130 1 -27 -2 -48 -2 -48 1 0 3 21 19
47 34 l47 27 285 2 c157 2 309 5 336 8 107 12 159 15 136 8 -13 -4 26 -7 85
-6 192 2 201 3 184 15 -12 9 -11 10 8 6 12 -3 20 -1 16 4 -3 5 -12 9 -20 9 -8
0 -14 3 -14 8 0 4 -27 20 -60 36 -32 17 -57 33 -54 38 3 4 -4 8 -16 8 -12 0
-18 5 -15 10 4 6 -5 10 -19 10 -16 0 -26 6 -26 15 0 8 -7 15 -16 15 -8 0 -12
5 -9 10 3 6 -3 10 -15 10 -12 0 -18 4 -15 10 7 12 -40 24 -62 16 -9 -4 -98 -7
-198 -7 -142 0 -186 -3 -201 -14 -17 -12 1 -13 136 -10 158 5 205 1 179 -16
-10 -6 -4 -9 19 -9 18 0 31 -4 28 -9 -3 -5 2 -12 12 -15 38 -14 64 -34 50 -39
-7 -3 -1 -6 15 -6 17 -1 27 -6 27 -16 0 -9 9 -15 23 -15 18 0 19 -2 7 -10 -12
-8 -9 -10 13 -10 29 0 38 -19 10 -21 -16 -1 -317 -8 -353 -8 -39 0 -368 6
-387 7 -13 1 -23 6 -23 11 0 17 127 111 222 165 51 29 107 61 123 71 26 17 28
18 16 2 -12 -15 -12 -17 2 -11 16 6 348 -22 375 -31 21 -8 313 15 357 28 32 9
35 12 17 15 -21 3 -52 42 -34 42 9 0 5 85 -7 163 -8 46 -8 48 28 76 20 15 43
31 51 34 8 3 -16 6 -53 6 -43 1 -66 5 -62 11 4 6 -22 10 -72 10 -134 0 -113
17 29 23 164 6 170 8 156 50 -6 18 -20 42 -30 54 -15 16 -18 29 -13 52 6 26 1
37 -29 72 -23 28 -37 56 -42 85 -6 41 -8 44 -38 44 -17 0 -48 4 -68 9 -38 9
-38 9 -38 -23z m193 -253 c23 -12 37 -33 22 -33 -7 0 -75 36 -95 50 -21 15 36
2 73 -17z m-323 5 c-1 -42 -13 -58 -44 -58 -25 0 -36 6 -46 26 -12 22 -12 27
0 34 23 14 90 12 90 -2z m-350 -422 c0 -2 -8 -10 -17 -17 -16 -13 -17 -12 -4
4 13 16 21 21 21 13z m-290 -150 c0 -2 -8 -10 -17 -17 -16 -13 -17 -12 -4 4
13 16 21 21 21 13z m766 -138 c4 -7 3 -8 -4 -4 -7 4 -12 2 -12 -3 0 -6 -8 -11
-17 -11 -15 0 -14 2 3 15 23 18 21 17 30 3z m-389 -114 c-3 -3 -12 -4 -19 -1
-8 3 -5 6 6 6 11 1 17 -2 13 -5z m-752 -114 c3 -5 -3 -10 -15 -10 -12 0 -18 5
-15 10 3 6 10 10 15 10 5 0 12 -4 15 -10z m95 -30 c0 -5 -7 -7 -15 -4 -8 4
-15 8 -15 10 0 2 7 4 15 4 8 0 15 -4 15 -10z"/>
<path d="M8530 2260 c0 -5 8 -10 18 -10 15 -1 15 -2 -3 -16 -11 -8 -28 -21
-37 -29 -12 -10 -18 -11 -22 -2 -2 7 -5 6 -5 -3 -1 -9 4 -21 11 -28 9 -9 8
-12 -6 -12 -14 0 -16 -4 -10 -17 4 -10 8 -43 8 -73 1 -30 5 -61 10 -69 6 -10
6 -12 -2 -7 -7 4 -12 2 -12 -4 0 -6 -4 -8 -10 -5 -6 4 -10 -10 -10 -34 0 -26
5 -41 13 -41 8 0 7 -4 -3 -10 -9 -6 -11 -13 -5 -17 6 -5 15 -17 22 -29 10 -19
9 -20 -14 -16 -25 5 -26 3 -20 -28 4 -18 7 -37 7 -42 0 -6 7 -8 15 -4 9 3 15
0 15 -10 0 -11 -6 -13 -19 -9 -11 3 -22 1 -25 -4 -4 -5 -26 -20 -51 -32 -24
-12 -42 -26 -39 -30 3 -5 -1 -6 -9 -3 -10 4 -14 -2 -14 -19 0 -14 -10 -34 -22
-46 -30 -30 -26 -48 14 -62 23 -9 34 -18 30 -27 -2 -7 -1 -10 4 -7 5 3 13 0
16 -6 4 -5 13 -8 20 -5 8 3 16 0 19 -7 3 -9 5 -9 5 1 1 6 10 12 21 12 13 0 18
5 14 15 -8 21 -1 19 42 -10 48 -33 70 -32 77 3 9 43 -10 51 -38 17 -14 -17
-22 -22 -19 -12 4 9 1 17 -5 17 -7 0 -9 9 -5 24 5 22 4 23 -43 20 -42 -4 -45
-3 -23 7 14 6 32 14 40 18 26 13 90 105 90 129 0 13 -4 20 -10 17 -5 -3 -10 1
-10 10 0 15 -1 15 -16 1 -8 -9 -20 -13 -26 -10 -7 4 -6 9 2 14 16 10 26 90 11
90 -8 0 -8 4 1 14 9 10 15 11 21 2 14 -22 27 18 23 74 -2 36 -8 54 -16 52 -6
-1 -9 2 -5 8 3 6 9 8 13 6 4 -2 8 12 10 32 1 19 6 40 11 46 13 17 19 66 9 72
-5 3 -5 11 -1 17 13 18 17 74 5 62 -6 -5 -12 -18 -14 -27 -2 -13 -7 -15 -18
-8 -12 7 -12 12 -2 22 18 18 14 38 -8 38 -11 0 -20 -4 -20 -10z m40 -91 c0 -6
-4 -7 -10 -4 -5 3 -10 11 -10 16 0 6 5 7 10 4 6 -3 10 -11 10 -16z m5 -39 c-3
-5 -11 -10 -16 -10 -6 0 -7 5 -4 10 3 6 11 10 16 10 6 0 7 -4 4 -10z m-178
-565 c-14 -10 -15 -14 -5 -19 7 -3 0 -3 -17 1 -46 9 -50 19 -13 34 l33 13 -27
3 c-16 3 -28 10 -28 17 0 26 14 25 44 -5 29 -29 30 -31 13 -44z"/>
<path d="M8652 2256 c7 -7 19 -11 27 -8 11 4 10 7 -5 13 -29 12 -36 10 -22 -5z"/>
<path d="M8610 2236 c0 -9 5 -16 10 -16 6 0 10 4 10 9 0 6 -4 13 -10 16 -5 3
-10 -1 -10 -9z"/>
<path d="M8653 2194 c0 -8 6 -14 14 -14 7 0 13 4 13 9 0 5 -6 11 -13 14 -8 3
-14 -1 -14 -9z"/>
<path d="M9433 2115 c0 -22 2 -30 4 -17 2 12 2 30 0 40 -3 9 -5 -1 -4 -23z"/>
<path d="M8650 2089 c0 -5 5 -7 10 -4 6 3 10 8 10 11 0 2 -4 4 -10 4 -5 0 -10
-5 -10 -11z"/>
<path d="M9092 2022 c3 -45 7 -84 10 -87 3 -3 22 -9 42 -12 l37 -6 -15 38 c-9
20 -13 48 -10 61 5 18 2 24 -10 24 -12 0 -15 -9 -13 -37 1 -28 -2 -38 -13 -38
-11 0 -15 16 -17 64 -1 35 -5 67 -9 70 -4 3 -4 -31 -2 -77z"/>
<path d="M8750 2051 c0 -5 7 -12 16 -15 14 -5 15 -4 4 9 -14 17 -20 19 -20 6z"/>
<path d="M6960 2030 c0 -5 5 -10 10 -10 6 0 10 5 10 10 0 6 -4 10 -10 10 -5 0
-10 -4 -10 -10z"/>
<path d="M9180 2021 c0 -12 5 -21 10 -21 6 0 10 6 10 14 0 8 -4 18 -10 21 -5
3 -10 -3 -10 -14z"/>
<path d="M6160 2020 l-35 -7 35 -1 c19 0 55 3 80 7 l45 8 -45 0 c-25 0 -61 -3
-80 -7z"/>
<path d="M7263 2023 c9 -2 25 -2 35 0 9 3 1 5 -18 5 -19 0 -27 -2 -17 -5z"/>
<path d="M8755 2023 c3 -7 1 -13 -4 -13 -6 0 -11 -5 -11 -11 0 -8 4 -8 14 0
11 9 20 1 46 -39 35 -54 52 -69 23 -19 -18 31 -80 105 -68 82z"/>
<path d="M7318 2003 c6 -2 18 -2 25 0 6 3 1 5 -13 5 -14 0 -19 -2 -12 -5z"/>
<path d="M5848 1973 c6 -2 18 -2 25 0 6 3 1 5 -13 5 -14 0 -19 -2 -12 -5z"/>
<path d="M8908 1958 c5 -21 13 -23 30 -6 18 18 15 26 -11 24 -17 -1 -23 -6
-19 -18z"/>
<path d="M6998 1963 c7 -3 16 -2 19 1 4 3 -2 6 -13 5 -11 0 -14 -3 -6 -6z"/>
<path d="M6888 1938 c9 -9 15 -9 24 0 9 9 7 12 -12 12 -19 0 -21 -3 -12 -12z"/>
<path d="M8877 1914 c-3 -3 -22 -6 -41 -6 -20 0 -33 -4 -30 -9 3 -5 -4 -9 -15
-9 -13 0 -21 -7 -21 -16 0 -11 6 -15 20 -11 11 3 18 1 14 -4 -3 -5 0 -9 6 -9
6 0 9 -4 6 -8 -3 -5 3 -18 14 -29 20 -22 17 -33 -11 -33 -38 0 -31 -33 17 -77
42 -38 53 -43 94 -43 60 0 123 39 174 109 38 52 43 90 10 77 -9 -4 -23 -1 -30
5 -8 6 -14 8 -15 3 -3 -42 -10 -69 -24 -90 -18 -28 -33 -31 -42 -6 -3 9 -12
32 -19 50 l-13 32 -36 -17 -37 -18 -30 34 -30 34 28 23 c16 13 26 23 23 24 -3
0 -8 -3 -12 -6z"/>
<path d="M306 1881 c-4 -7 -5 -15 -2 -18 9 -9 19 4 14 18 -4 11 -6 11 -12 0z"/>
<path d="M7670 1872 c0 -32 32 -64 87 -88 47 -21 52 -26 43 -43 -21 -41 -90
-79 -90 -50 0 16 -41 102 -46 96 -5 -4 -15 -118 -32 -349 -6 -77 -5 -95 5 -86
7 6 10 15 6 21 -3 6 -1 7 5 3 7 -4 20 7 33 28 23 40 38 44 76 19 23 -16 24
-17 7 -24 -17 -7 -16 -8 4 -8 13 -1 20 -5 17 -11 -3 -5 1 -10 9 -10 19 0 21
-16 4 -23 -7 -3 -3 -6 10 -6 13 -1 20 -5 17 -11 -3 -5 1 -10 9 -10 9 0 16 -5
16 -10 0 -6 3 -9 8 -9 19 3 42 -2 42 -9 0 -12 -23 -14 -257 -23 -13 -1 -23 -6
-23 -13 0 -17 244 -13 265 4 12 10 15 10 15 -1 0 -10 3 -10 12 -1 7 7 19 12
28 11 10 0 9 -3 -5 -9 -16 -7 -17 -9 -3 -9 9 -1 19 3 23 8 3 5 21 7 40 4 28
-4 35 -2 35 11 0 9 6 16 13 17 6 0 1 5 -13 10 -20 8 -22 12 -10 19 11 7 8 10
-15 10 -23 0 -27 3 -15 10 10 6 11 10 3 10 -20 0 -54 38 -40 44 7 2 2 5 -11 5
-13 1 -20 5 -17 11 3 6 -1 10 -9 10 -9 0 -16 5 -16 10 0 6 -3 9 -7 9 -20 -3
-26 2 -13 11 21 14 -45 14 -70 0 -13 -7 -21 -7 -25 0 -3 5 -22 10 -42 10 -32
0 -35 2 -29 23 3 12 6 26 6 31 0 5 35 7 78 4 42 -3 69 -4 60 -1 -10 2 -18 9
-18 14 0 5 -7 9 -16 9 -8 0 -12 5 -9 10 3 6 2 10 -3 10 -20 0 -52 38 -46 55 6
14 3 16 -14 11 -15 -5 -22 -2 -27 15 -9 26 8 39 51 39 37 0 64 24 39 34 -12 4
-14 10 -5 25 15 29 12 73 -6 100 -31 44 -134 70 -134 33z m100 -17 c26 -14 50
-58 38 -71 -14 -14 -128 55 -128 78 0 14 59 9 90 -7z m10 -409 c0 -9 -30 -14
-35 -6 -4 6 3 10 14 10 12 0 21 -2 21 -4z m140 -111 c0 -2 -10 -9 -22 -15 -22
-11 -22 -10 -4 4 21 17 26 19 26 11z m16 -24 c-4 -5 -1 -12 4 -14 6 -3 5 -4
-2 -3 -15 3 -23 26 -8 26 6 0 9 -4 6 -9z m84 -31 c0 -5 -5 -10 -11 -10 -5 0
-7 5 -4 10 3 6 8 10 11 10 2 0 4 -4 4 -10z"/>
<path d="M0 1860 c0 -11 4 -20 9 -20 5 0 7 9 4 20 -3 11 -7 20 -9 20 -2 0 -4
-9 -4 -20z"/>
<path d="M5048 1873 c7 -3 16 -2 19 1 4 3 -2 6 -13 5 -11 0 -14 -3 -6 -6z"/>
<path d="M510 1860 c0 -5 7 -10 16 -10 8 0 12 5 9 10 -3 6 -10 10 -16 10 -5 0
-9 -4 -9 -10z"/>
<path d="M4803 1843 c9 -2 25 -2 35 0 9 3 1 5 -18 5 -19 0 -27 -2 -17 -5z"/>
<path d="M8925 1840 c-3 -5 -1 -10 4 -10 6 0 11 5 11 10 0 6 -2 10 -4 10 -3 0
-8 -4 -11 -10z"/>
<path d="M4708 1833 c6 -2 18 -2 25 0 6 3 1 5 -13 5 -14 0 -19 -2 -12 -5z"/>
<path d="M7403 1770 c0 -41 2 -58 4 -37 2 20 2 54 0 75 -2 20 -4 3 -4 -38z"/>
<path d="M0 1820 c0 -5 12 -10 26 -10 14 0 23 4 19 10 -3 6 -15 10 -26 10 -10
0 -19 -4 -19 -10z"/>
<path d="M3985 1820 c-3 -5 -1 -10 4 -10 6 0 11 5 11 10 0 6 -2 10 -4 10 -3 0
-8 -4 -11 -10z"/>
<path d="M4088 1723 c7 -3 16 -2 19 1 4 3 -2 6 -13 5 -11 0 -14 -3 -6 -6z"/>
<path d="M4178 1683 c7 -3 16 -2 19 1 4 3 -2 6 -13 5 -11 0 -14 -3 -6 -6z"/>
<path d="M7848 1683 c6 -2 18 -2 25 0 6 3 1 5 -13 5 -14 0 -19 -2 -12 -5z"/>
<path d="M6531 1664 c0 -11 3 -14 6 -6 3 7 2 16 -1 19 -3 4 -6 -2 -5 -13z"/>
<path d="M7392 1660 c0 -14 2 -19 5 -12 2 6 2 18 0 25 -3 6 -5 1 -5 -13z"/>
<path d="M8020 1660 c-13 -8 -12 -10 3 -10 10 0 24 -6 33 -12 60 -52 73 -67
62 -71 -7 -3 -4 -6 7 -6 11 -1 27 -10 35 -21 8 -12 26 -20 42 -20 22 0 30 7
46 43 16 36 17 42 4 46 -9 2 -22 9 -30 17 -11 11 -11 14 0 15 13 1 -143 27
-172 28 -8 0 -22 -4 -30 -9z"/>
<path d="M8810 1635 c0 -8 4 -15 8 -15 5 0 9 7 9 15 0 8 -4 15 -9 15 -4 0 -8
-7 -8 -15z"/>
<path d="M6521 1624 c0 -11 3 -14 6 -6 3 7 2 16 -1 19 -3 4 -6 -2 -5 -13z"/>
<path d="M8620 1602 c0 -16 65 -26 87 -13 16 9 14 10 -12 11 -16 0 -40 3 -52
6 -14 4 -23 2 -23 -4z"/>
<path d="M8780 1585 c0 -8 5 -15 10 -15 6 0 10 7 10 15 0 8 -4 15 -10 15 -5 0
-10 -7 -10 -15z"/>
<path d="M8750 1546 c0 -9 5 -16 10 -16 6 0 10 4 10 9 0 6 -4 13 -10 16 -5 3
-10 -1 -10 -9z"/>
<path d="M8600 1531 c0 -11 11 -12 53 -7 74 10 80 24 8 22 -44 -1 -61 -5 -61
-15z"/>
<path d="M8730 1496 c0 -9 5 -16 10 -16 6 0 10 4 10 9 0 6 -4 13 -10 16 -5 3
-10 -1 -10 -9z"/>
<path d="M8334 1476 c5 -21 3 -24 -17 -20 -53 9 -121 13 -107 7 28 -12 41 -31
27 -37 -6 -3 4 -4 24 -1 51 7 85 -8 146 -66 49 -47 75 -58 74 -34 0 6 11 16
25 23 25 13 32 36 12 48 -8 5 -7 10 4 18 25 19 40 54 26 62 -6 4 -14 2 -16 -4
-2 -7 -14 -12 -27 -12 -14 0 -32 -10 -42 -24 -15 -20 -22 -22 -48 -13 -16 5
-34 14 -40 19 -5 5 3 4 18 -1 22 -9 28 -8 24 1 -2 7 -9 12 -15 11 -6 -2 -9 3
-6 11 3 9 -6 18 -27 25 -42 15 -42 15 -35 -13z m156 -72 c0 -2 -7 -4 -15 -4
-8 0 -15 4 -15 10 0 5 7 7 15 4 8 -4 15 -8 15 -10z"/>
<path d="M8457 1489 c7 -7 15 -10 18 -7 3 3 -2 9 -12 12 -14 6 -15 5 -6 -5z"/>
<path d="M6488 1473 c7 -3 16 -2 19 1 4 3 -2 6 -13 5 -11 0 -14 -3 -6 -6z"/>
<path d="M8613 1470 c-35 -14 -28 -20 22 -20 33 0 45 4 45 15 0 17 -32 19 -67
5z"/>
<path d="M6410 1460 c-21 -7 -21 -8 -5 -9 11 0 27 4 35 9 18 11 5 11 -30 0z"/>
<path d="M8430 1443 c0 -7 4 -13 9 -13 5 0 13 6 19 13 8 10 6 13 -9 13 -10 0
-19 -6 -19 -13z"/>
<path d="M9916 1451 c-5 -7 4 -11 23 -11 23 0 29 -4 25 -15 -4 -10 0 -15 16
-15 11 0 18 -4 15 -10 -4 -6 5 -10 19 -10 14 0 26 -4 26 -10 0 -5 12 -10 26
-10 14 0 23 -4 20 -9 -3 -5 6 -12 19 -15 14 -4 23 -11 20 -16 -3 -6 5 -10 19
-10 16 0 26 -6 26 -15 0 -8 9 -15 21 -15 11 0 18 -4 14 -9 -3 -6 133 -9 362
-7 480 5 453 4 453 19 0 11 -36 13 -192 10 -106 -3 -220 -4 -253 -3 -33 1 -71
2 -85 2 -132 -2 -145 -1 -153 13 -4 8 -17 15 -28 15 -11 0 -17 5 -14 10 4 6
-5 10 -19 10 -14 0 -26 5 -26 10 0 6 -9 10 -21 10 -15 0 -19 5 -15 15 4 11 -1
15 -19 15 -25 0 -36 19 -12 21 6 1 -13 5 -43 9 -30 4 -67 10 -81 13 -75 15
-137 18 -143 8z"/>
<path d="M6333 1443 c9 -2 25 -2 35 0 9 3 1 5 -18 5 -19 0 -27 -2 -17 -5z"/>
<path d="M8705 1440 c3 -5 8 -10 11 -10 2 0 4 5 4 10 0 6 -5 10 -11 10 -5 0
-7 -4 -4 -10z"/>
<path d="M6238 1435 c-2 -3 -42 -11 -89 -20 -81 -14 -82 -14 -19 -9 72 5 182
32 139 33 -14 1 -28 -1 -31 -4z"/>
<path d="M9001 1406 c-9 -11 -7 -15 11 -20 13 -3 33 -6 46 -6 12 0 22 -4 22
-9 0 -13 -59 -19 -99 -10 -34 7 -61 -2 -61 -21 0 -5 91 -7 203 -7 111 1 191 4
177 5 -13 2 -35 15 -47 28 -12 13 -30 24 -40 24 -15 0 -16 2 -3 10 10 6 -17 9
-81 8 -53 0 -101 2 -107 5 -5 4 -15 1 -21 -7z"/>
<path d="M8680 1394 c0 -8 5 -12 10 -9 6 3 10 10 10 16 0 5 -4 9 -10 9 -5 0
-10 -7 -10 -16z"/>
<path d="M5790 1386 c-25 -7 -75 -25 -113 -40 -37 -14 -77 -27 -90 -27 -16 -1
-17 -3 -5 -6 16 -4 93 17 186 51 24 9 67 20 95 25 50 8 50 9 12 9 -22 0 -60
-5 -85 -12z"/>
<path d="M5968 1393 c6 -2 18 -2 25 0 6 3 1 5 -13 5 -14 0 -19 -2 -12 -5z"/>
<path d="M6023 1393 c9 -2 23 -2 30 0 6 3 -1 5 -18 5 -16 0 -22 -2 -12 -5z"/>
<path d="M10494 1381 c4 -6 18 -11 32 -11 14 0 23 -4 20 -9 -8 -12 52 -20 83
-12 13 4 47 4 75 0 28 -4 58 -3 66 2 8 5 11 9 5 9 -16 1 -175 18 -234 26 -38
4 -52 3 -47 -5z"/>
<path d="M6115 1371 c-74 -6 -78 -7 -50 -18 l30 -11 -30 -2 -30 -2 29 -13 30
-12 -25 -9 -24 -8 25 -6 25 -7 -25 -11 -25 -11 30 -1 c28 -1 29 -2 7 -10 -12
-5 -59 -10 -105 -10 -45 0 -93 0 -107 0 -41 -1 -134 -1 -150 -1 -236 7 -257 7
-345 -14 l-90 -22 290 4 c160 1 386 4 502 6 117 1 213 5 213 10 0 4 -6 8 -12
8 -7 1 1 5 17 9 23 6 25 8 8 9 -30 1 -40 21 -11 22 23 1 23 1 -2 9 -21 7 -22
8 -5 10 17 2 16 3 -5 10 l-25 7 25 11 25 11 -30 1 c-30 2 -30 2 -5 10 24 8 24
8 3 9 -25 1 -31 16 -10 24 14 6 -39 5 -148 -2z"/>
<path d="M8219 1343 c-5 -14 -8 -30 -6 -36 1 -5 8 7 14 27 13 42 7 49 -8 9z"/>
<path d="M5528 1303 c6 -2 18 -2 25 0 6 3 1 5 -13 5 -14 0 -19 -2 -12 -5z"/>
<path d="M5765 1300 c-15 -7 -10 -9 23 -9 26 -1 41 3 37 9 -7 12 -32 12 -60 0z"/>
<path d="M8048 1258 c6 -6 18 -8 28 -6 14 3 12 5 -9 10 -19 3 -25 2 -19 -4z"/>
<path d="M9853 1263 c9 -2 23 -2 30 0 6 3 -1 5 -18 5 -16 0 -22 -2 -12 -5z"/>
<path d="M7471 1204 c0 -11 3 -14 6 -6 3 7 2 16 -1 19 -3 4 -6 -2 -5 -13z"/>
<path d="M10514 1209 c-61 -3 -116 -9 -122 -13 -6 -3 -13 -2 -17 4 -3 5 -18 9
-33 9 -26 -2 -26 -2 -3 -6 19 -4 21 -7 10 -14 -11 -7 -9 -9 8 -9 12 0 29 -3
38 -6 13 -5 14 -8 3 -15 -8 -6 -2 -9 21 -9 25 0 32 -4 27 -15 -4 -12 3 -15 30
-15 28 0 35 -3 30 -15 -3 -10 1 -15 13 -15 11 0 28 -3 38 -7 16 -6 15 -8 -7
-15 -17 -5 -9 -6 25 -4 28 2 58 7 68 11 10 4 17 3 17 -5 0 -6 -4 -8 -10 -5 -5
3 -10 -1 -10 -10 0 -12 -6 -15 -20 -10 -11 4 -20 2 -20 -4 0 -6 14 -11 31 -11
24 0 30 -4 25 -15 -4 -12 5 -15 54 -15 36 0 60 -4 60 -11 0 -6 -10 -10 -22 -9
-42 4 -43 -3 -3 -10 38 -6 39 -7 15 -17 -23 -9 -21 -11 23 -17 28 -4 53 -3 60
2 11 10 72 9 147 -2 26 -4 30 -3 15 4 -17 7 -18 9 -2 9 9 1 17 6 17 11 0 13
-12 13 -45 0 -23 -9 -26 -8 -21 5 4 11 -2 15 -22 15 -17 0 -22 -3 -15 -8 8 -5
-8 -8 -36 -8 -37 0 -51 4 -60 19 -19 29 -2 35 20 7 11 -14 18 -18 16 -10 -2 8
-2 12 0 8 3 -5 14 -8 24 -8 11 0 18 4 14 9 -3 5 3 12 12 14 11 3 5 5 -12 6
-34 1 -72 20 -45 22 8 0 2 5 -15 10 -16 5 -39 6 -50 2 -17 -5 -18 -3 -8 9 11
12 9 14 -7 13 -11 -1 -26 -7 -33 -15 -9 -10 -9 -11 1 -6 6 4 12 2 12 -4 0 -7
-6 -10 -14 -7 -7 3 -20 0 -27 -6 -8 -8 -8 -5 1 7 14 18 13 19 -17 14 -26 -4
-30 -2 -22 9 7 7 8 13 4 13 -4 0 -2 6 4 13 6 8 8 17 4 21 -4 4 -1 11 7 16 11
7 6 10 -18 10 -20 0 -35 6 -38 15 -4 8 -16 15 -29 15 -12 0 -27 6 -33 13 -9
11 3 13 66 10 42 -3 86 -4 97 -3 11 0 57 0 102 0 45 0 101 4 123 9 23 5 40 5
40 0 0 -5 5 -9 10 -9 11 0 14 29 3 31 -29 4 -409 3 -499 -2z m124 -102 c8 -10
5 -13 -14 -15 -21 -2 -23 0 -12 13 16 18 14 17 26 2z m-84 -6 c4 -5 -3 -7 -14
-4 -23 6 -26 13 -6 13 8 0 17 -4 20 -9z m260 -133 c7 -5 5 -8 -6 -8 -21 0 -32
16 -22 32 6 9 9 8 12 -2 3 -8 10 -18 16 -22z"/>
<path d="M9403 1186 c17 -17 95 -27 138 -17 20 5 58 5 84 1 56 -9 113 2 81 15
-11 5 -21 3 -26 -6 -7 -11 -10 -10 -15 3 -6 15 -24 17 -140 16 -105 0 -131 -3
-122 -12z"/>
<path d="M9730 1189 c0 -7 10 -9 25 -7 14 3 25 1 25 -3 0 -5 14 -9 30 -9 17 0
30 -4 30 -10 0 -5 7 -6 17 -3 12 5 14 3 8 -7 -5 -8 -3 -11 6 -8 8 3 13 14 11
24 -3 18 -3 18 12 -1 13 -17 17 -18 26 -5 9 13 10 13 10 0 0 -12 2 -13 9 -1 6
9 18 11 41 6 23 -5 30 -4 26 4 -4 6 -27 11 -52 11 -24 0 -44 3 -44 8 0 4 -41
8 -90 10 -64 2 -90 0 -90 -9z"/>
<path d="M7745 1181 c-2 -2 -34 -3 -70 -2 -58 1 -66 -1 -63 -17 3 -15 18 -17
158 -15 85 1 164 -1 175 -4 l20 -6 -20 -8 c-17 -7 -16 -8 8 -8 26 -1 39 -20
15 -22 -7 -1 3 -5 22 -9 35 -7 35 -7 10 -17 -24 -10 -24 -10 8 -15 25 -3 32
-1 28 9 -3 7 -1 13 5 13 6 0 7 5 3 12 -4 6 -3 8 3 5 11 -7 40 21 67 65 l17 26
-191 -1 c-106 -1 -193 -4 -195 -6z"/>
<path d="M172 1140 c-17 -27 -15 -31 11 -21 12 5 22 14 22 21 0 22 -19 22 -33
0z"/>
<path d="M4880 1153 c-36 -2 -69 -8 -74 -14 -6 -5 -21 -9 -35 -9 -26 -1 -26
-1 4 -14 l30 -13 -39 -8 -39 -8 29 -13 c26 -11 26 -12 7 -13 -30 -1 -38 -19
-11 -23 20 -4 18 -6 -12 -15 l-35 -11 30 -2 30 -2 -35 -13 -35 -13 30 -4 30
-4 -35 -11 -35 -11 30 -2 30 -2 -35 -11 c-30 -9 -32 -11 -12 -15 34 -5 26 -22
-10 -23 l-33 -1 35 -13 c33 -13 34 -14 8 -14 -15 -1 -29 -5 -33 -10 -3 -6 55
-7 147 -4 84 2 162 4 173 4 20 -1 107 0 175 2 19 0 49 0 65 -1 17 -1 122 0
235 3 208 6 218 6 315 6 30 1 70 1 88 1 17 1 48 0 67 0 81 -4 440 5 447 11 3
4 -8 7 -25 7 -17 0 -34 4 -37 10 -3 5 3 10 15 10 28 0 16 20 -13 21 -17 1 -15
3 8 9 l30 7 -30 8 c-26 7 -27 9 -10 16 19 6 18 8 -5 17 l-25 11 25 1 25 1 -25
14 -25 14 25 1 c25 2 24 2 -5 15 -29 14 -30 14 -5 15 l25 1 -25 11 -25 11 25
7 c25 8 25 8 -5 9 -31 1 -25 15 10 24 12 3 7 5 -15 6 -31 1 -33 3 -18 14 14
11 -20 13 -185 10 -162 -3 -547 -5 -967 -5 -70 0 -72 0 -125 5 -27 2 -79 2
-115 0z m1118 -34 c64 1 102 -2 102 -9 0 -5 -12 -10 -27 -10 l-28 -1 30 -14
c30 -13 30 -13 5 -15 l-25 -1 25 -11 25 -11 -30 -7 -30 -8 35 -1 c38 -1 31
-16 -10 -24 -20 -3 -18 -5 10 -6 35 -1 32 -15 -5 -24 -14 -3 -11 -5 10 -6 31
-1 25 -15 -10 -24 -15 -4 -13 -5 8 -6 15 0 27 -5 27 -10 0 -9 -77 -24 -89 -17
-11 7 -57 7 -201 1 -69 -3 -138 -4 -155 -3 -16 1 -45 1 -62 0 -30 0 -103 -1
-170 -1 -16 0 -131 -2 -258 -4 -126 -3 -238 -1 -250 3 -18 8 -17 9 7 9 32 1
49 21 18 21 -28 0 -15 20 13 21 20 1 20 2 -3 8 l-25 7 30 11 30 11 -30 2 c-29
2 -29 2 10 15 l40 13 -35 2 -35 2 30 11 30 11 -25 7 c-23 6 -23 7 -3 8 30 1
40 21 11 21 -21 1 -21 2 -5 11 9 6 34 10 55 9 20 -1 93 -2 162 -2 69 1 149 1
178 0 28 0 62 0 75 0 105 0 390 11 394 16 4 3 16 3 27 -1 12 -3 67 -5 124 -4z"/>
<path d="M5434 1061 c-2 -2 -50 -4 -106 -3 -83 1 -98 -1 -78 -10 l25 -11 -30
-7 c-27 -7 -27 -8 -5 -9 27 -1 18 -16 -15 -24 -15 -3 -13 -5 8 -6 35 -1 26
-21 -11 -22 -25 -1 -25 -1 7 -10 22 -7 50 -7 80 0 27 6 62 6 84 1 20 -4 52 -5
70 -1 17 4 102 7 189 6 86 -1 162 1 170 6 9 6 4 9 -17 10 l-30 1 30 13 30 14
-30 1 -30 1 30 14 30 13 -30 2 -30 2 35 13 c31 12 12 13 -168 12 -112 -1 -206
-4 -208 -6z m146 -41 c23 -7 22 -8 -15 -16 -41 -8 -52 -8 -95 3 -25 6 -25 6 5
13 39 10 74 10 105 0z"/>
<path d="M9990 1146 c0 -7 61 -13 65 -6 2 3 -12 7 -31 8 -19 2 -34 1 -34 -2z"/>
<path d="M9937 1129 c7 -7 15 -10 18 -7 3 3 -2 9 -12 12 -14 6 -15 5 -6 -5z"/>
<path d="M9861 1126 c2 -2 18 -6 34 -10 22 -5 26 -4 15 4 -14 9 -59 15 -49 6z"/>
<path d="M10998 1123 c7 -3 16 -2 19 1 4 3 -2 6 -13 5 -11 0 -14 -3 -6 -6z"/>
<path d="M4440 1110 c-21 -6 -22 -8 -8 -15 10 -4 46 0 80 8 l63 15 -55 -1
c-30 0 -66 -4 -80 -7z"/>
<path d="M9052 1103 c24 -8 28 -12 13 -13 -11 -1 0 -7 25 -13 42 -9 43 -11 20
-18 -19 -7 -15 -8 15 -4 28 3 35 2 25 -5 -8 -5 -10 -10 -5 -10 6 0 4 -4 -3 -9
-22 -14 31 -23 76 -13 21 5 65 7 98 6 52 -3 55 -2 27 6 -40 13 -44 25 -5 16
20 -5 23 -4 12 4 -17 11 -63 14 -57 3 3 -5 -5 -8 -18 -8 -13 0 -21 3 -18 8 2
4 11 7 19 7 8 0 14 5 14 10 0 6 7 10 15 10 8 0 15 5 15 11 0 5 -5 7 -11 3 -19
-12 -71 -15 -64 -4 3 6 13 10 22 10 9 0 13 3 10 6 -4 4 -63 8 -132 8 -108 1
-121 0 -93 -11z m132 -39 c3 -8 2 -12 -4 -9 -6 3 -10 10 -10 16 0 14 7 11 14
-7z m49 -21 c-7 -2 -19 -2 -25 0 -7 3 -2 5 12 5 14 0 19 -2 13 -5z"/>
<path d="M9550 1105 c0 -8 -7 -15 -16 -15 -8 0 -13 4 -10 9 4 5 -2 8 -11 6
-10 -2 -18 -4 -18 -5 0 -1 -13 -4 -30 -6 -23 -3 -26 -2 -15 6 13 8 13 10 -2
10 -9 0 -18 -6 -21 -12 -3 -10 -7 -10 -20 1 -15 12 -17 11 -17 -3 0 -11 10
-16 33 -17 57 -2 62 -4 59 -18 -3 -12 0 -12 12 -2 9 7 13 18 10 23 -4 6 6 2
22 -8 19 -13 25 -14 20 -5 -8 12 -1 13 35 8 25 -3 51 -1 59 4 13 10 13 10 0 6
-21 -6 -63 11 -55 23 3 5 -3 10 -14 10 -12 0 -21 -7 -21 -15z"/>
<path d="M9335 1100 c3 -5 16 -10 28 -9 21 0 21 1 2 9 -28 12 -37 12 -30 0z"/>
<path d="M9921 1089 c8 -5 32 -9 54 -10 22 0 49 -5 60 -10 16 -7 14 -9 -12 -6
-18 2 -33 0 -33 -5 0 -4 8 -8 18 -8 14 0 15 -2 2 -10 -8 -5 -12 -10 -7 -10 11
0 51 23 59 35 4 6 8 2 8 -7 0 -12 -8 -18 -22 -18 -21 -1 -22 -2 -6 -14 13 -10
15 -15 6 -24 -9 -9 -3 -12 25 -12 26 0 37 -4 37 -14 0 -12 -17 -14 -95 -11
-52 2 -95 0 -95 -4 0 -5 15 -7 34 -4 19 2 37 -1 41 -7 4 -6 10 -8 15 -5 5 3
19 1 31 -6 17 -8 20 -8 14 1 -5 9 -1 10 14 5 14 -4 29 -1 39 7 31 24 59 37 78
34 11 -2 32 1 47 5 25 7 27 6 16 -7 -6 -8 -9 -17 -5 -21 3 -3 6 -1 6 5 0 7 9
12 20 12 28 0 25 17 -5 24 -17 4 -23 11 -18 19 4 8 1 7 -10 -2 -9 -7 -17 -10
-17 -6 0 4 -8 1 -17 -6 -16 -13 -17 -12 -4 3 7 10 17 15 22 12 5 -3 9 0 9 5 0
6 -9 11 -20 11 -11 0 -20 7 -20 15 0 18 -21 20 -37 4 -9 -9 -10 -6 -6 10 5 18
2 22 -13 20 -10 -2 -25 0 -33 5 -8 5 -16 4 -21 -4 -5 -8 -15 -10 -26 -5 -27
11 -150 15 -133 4z m208 -12 c14 4 14 3 1 -6 -8 -7 -24 -17 -35 -23 -16 -8
-18 -8 -8 2 6 7 9 20 6 29 -5 12 -3 13 7 4 7 -6 20 -9 29 -6z"/>
<path d="M10713 1093 c9 -2 23 -2 30 0 6 3 -1 5 -18 5 -16 0 -22 -2 -12 -5z"/>
<path d="M0 1079 c0 -5 5 -7 10 -4 5 3 10 8 10 11 0 2 -4 4 -10 4 -5 0 -10 -5
-10 -11z"/>
<path d="M9639 1051 c11 -7 9 -10 -10 -13 -17 -2 -9 -6 27 -14 28 -6 59 -7 70
-3 15 6 11 8 -16 9 -19 2 -39 2 -44 1 -5 -1 -6 5 -3 14 5 11 0 15 -16 15 -17
0 -19 -2 -8 -9z"/>
<path d="M7990 1040 c-12 -8 -11 -10 8 -10 12 0 22 5 22 10 0 13 -11 13 -30 0z"/>
<path d="M9578 1033 c7 -3 16 -2 19 1 4 3 -2 6 -13 5 -11 0 -14 -3 -6 -6z"/>
<path d="M8826 1011 c-3 -4 6 -6 19 -3 14 2 25 6 25 8 0 8 -39 4 -44 -5z"/>
<path d="M8650 989 c-20 -6 -16 -7 20 -8 44 -1 46 -13 5 -25 -11 -3 -3 -4 17
-1 38 4 50 -13 18 -26 -10 -4 -2 -9 22 -14 20 -4 43 -3 50 1 7 5 21 7 31 6 30
-5 18 7 -15 16 -22 5 -36 5 -43 -2 -5 -6 -9 -9 -8 -7 1 2 -4 16 -12 31 -15 30
-46 40 -85 29z"/>
<path d="M8738 993 c7 -3 16 -2 19 1 4 3 -2 6 -13 5 -11 0 -14 -3 -6 -6z"/>
<path d="M8888 983 c7 -3 16 -2 19 1 4 3 -2 6 -13 5 -11 0 -14 -3 -6 -6z"/>
<path d="M9245 960 c-4 -6 -21 -8 -40 -4 -20 3 -35 1 -40 -6 -5 -7 2 -9 21 -4
21 5 25 4 19 -6 -6 -10 -1 -12 19 -8 14 3 26 1 26 -3 0 -5 10 -9 23 -9 16 0
23 6 23 20 0 24 -11 26 -20 4 -3 -8 -11 -12 -17 -9 -6 4 -8 13 -5 21 6 16 0
19 -9 4z"/>
<path d="M9376 962 c-2 -4 4 -9 15 -9 11 -1 17 2 14 8 -7 11 -22 12 -29 1z"/>
<path d="M9736 959 c2 -4 -3 -10 -12 -13 -8 -3 -12 -2 -9 4 3 5 -12 8 -35 7
-22 -1 -40 -2 -40 -4 0 -1 17 -7 39 -13 29 -8 46 -7 72 4 19 7 40 11 47 9 6
-3 12 0 12 5 0 6 -18 9 -39 9 -22 -1 -37 -5 -35 -8z"/>
<path d="M10137 958 c-30 -16 -18 -28 29 -28 25 0 43 4 40 9 -3 4 -18 7 -33 5
-22 -3 -24 -2 -9 4 16 7 17 10 5 14 -9 3 -23 2 -32 -4z"/>
<path d="M10278 963 c7 -3 16 -2 19 1 4 3 -2 6 -13 5 -11 0 -14 -3 -6 -6z"/>
<path d="M8840 948 c0 -5 12 -5 28 -2 39 10 41 15 4 12 -18 -1 -32 -6 -32 -10z"/>
<path d="M9038 953 c7 -3 16 -2 19 1 4 3 -2 6 -13 5 -11 0 -14 -3 -6 -6z"/>
<path d="M9573 950 c2 -8 12 -16 23 -17 13 -2 15 -1 4 4 -8 3 -19 11 -23 17
-6 7 -7 6 -4 -4z"/>
<path d="M9888 953 c7 -3 16 -2 19 1 4 3 -2 6 -13 5 -11 0 -14 -3 -6 -6z"/>
<path d="M9867 939 c7 -7 15 -10 18 -7 3 3 -2 9 -12 12 -14 6 -15 5 -6 -5z"/>
<path d="M10325 940 c-4 -6 6 -10 22 -10 22 0 25 2 13 10 -19 12 -27 12 -35 0z"/>
<path d="M8865 931 c-7 -12 68 -20 107 -12 l33 7 -30 6 c-16 3 -32 2 -35 -3
-4 -5 -19 -5 -38 0 -17 5 -34 6 -37 2z"/>
<path d="M9310 929 c0 -11 27 -12 34 -1 2 4 -4 9 -15 9 -10 1 -19 -2 -19 -8z"/>
<path d="M9368 933 c6 -2 18 -2 25 0 6 3 1 5 -13 5 -14 0 -19 -2 -12 -5z"/>
<path d="M9793 933 c9 -2 23 -2 30 0 6 3 -1 5 -18 5 -16 0 -22 -2 -12 -5z"/>
<path d="M10398 933 c7 -3 16 -2 19 1 4 3 -2 6 -13 5 -11 0 -14 -3 -6 -6z"/>
<path d="M9458 923 c7 -3 16 -2 19 1 4 3 -2 6 -13 5 -11 0 -14 -3 -6 -6z"/>
<path d="M9648 923 c7 -3 16 -2 19 1 4 3 -2 6 -13 5 -11 0 -14 -3 -6 -6z"/>
<path d="M10905 857 c45 -12 48 -14 30 -25 -18 -10 -18 -11 10 -12 32 0 75
-19 45 -20 -13 0 -13 -1 0 -10 25 -16 30 -12 30 30 0 39 -1 40 -34 40 -18 0
-55 2 -82 5 l-49 4 50 -12z"/>
<path d="M9315 849 c-16 -5 -54 -6 -82 -3 -33 4 -53 3 -53 -4 0 -14 -51 -25
-63 -13 -7 7 -15 7 -25 -2 -12 -9 -16 -9 -19 1 -6 15 -33 16 -33 0 0 -6 -6 -4
-14 7 -11 15 -20 17 -62 10 -27 -4 -83 -8 -124 -8 -41 0 -60 -2 -42 -4 33 -4
45 -23 15 -23 -15 0 -16 -2 -3 -10 8 -5 26 -10 39 -10 24 0 24 0 5 -15 -18
-14 -17 -14 14 -15 17 0 32 -4 32 -10 0 -5 -5 -10 -11 -10 -5 0 -7 -5 -4 -10
4 -6 25 -9 48 -6 23 2 34 2 24 -1 -10 -2 -16 -10 -14 -17 4 -9 -3 -12 -21 -9
-21 4 -24 2 -12 -6 8 -6 27 -11 43 -11 15 0 27 -4 27 -10 0 -5 -7 -10 -16 -10
-8 0 -12 -4 -9 -10 3 -5 19 -10 36 -10 34 0 40 -19 7 -21 -14 -1 -5 -6 20 -12
45 -11 57 -27 20 -27 -19 0 -20 -2 -8 -10 8 -5 27 -10 43 -10 31 0 34 -7 10
-26 -16 -12 -16 -13 9 -14 14 0 34 -3 43 -7 14 -5 12 -8 -11 -18 -29 -12 -29
-12 20 -18 26 -4 53 -4 60 0 10 7 226 14 301 10 36 -1 146 0 178 2 12 1 46 -2
76 -7 37 -7 66 -6 95 2 22 7 55 9 71 5 43 -10 115 -10 115 -1 0 7 71 17 95 13
14 -3 109 -2 175 0 30 1 78 2 105 1 42 0 134 -1 435 -3 19 0 53 1 75 2 22 2
52 0 67 -5 25 -7 26 -6 25 28 -1 29 -5 36 -21 37 -12 0 -30 4 -41 9 -19 8 -19
8 5 18 24 10 24 11 -10 12 -74 3 -96 14 -59 29 22 9 22 10 -11 11 -36 2 -95
17 -72 19 6 1 12 6 12 11 0 6 -18 10 -40 10 -40 0 -55 15 -22 23 11 3 9 5 -8
6 -46 2 -73 13 -58 22 10 7 9 9 -4 9 -9 0 -24 3 -34 7 -13 5 -15 3 -9 -8 5 -8
-2 -5 -16 6 -17 14 -20 15 -10 3 11 -15 10 -18 -13 -24 -14 -3 -24 -10 -21
-14 2 -4 -8 -5 -23 -1 -22 4 -23 6 -7 9 12 1 27 13 34 25 13 19 12 21 -1 10
-8 -7 -19 -9 -23 -5 -5 4 -6 3 -3 -3 4 -6 -9 -11 -29 -13 -22 -1 -32 2 -28 9
4 6 13 8 21 5 7 -3 16 -1 19 4 6 10 -5 13 -42 12 -25 -1 -30 10 -10 25 8 6 26
6 52 -2 25 -7 34 -14 25 -18 -8 -3 -10 -6 -3 -6 6 -1 14 3 18 9 3 5 13 6 22 3
11 -4 14 -3 9 5 -4 7 -20 12 -36 12 -37 0 -47 15 -13 18 42 3 40 12 -3 12 -40
0 -66 11 -65 26 1 10 -211 15 -267 6 -24 -3 -30 -7 -22 -16 7 -9 5 -13 -5 -13
-7 0 -13 5 -12 11 1 6 -9 12 -23 12 -14 1 -34 5 -44 9 -11 5 -44 3 -75 -3 -35
-7 -74 -8 -106 -2 -47 8 -113 -2 -140 -21 -5 -3 -19 -3 -30 2 -18 7 -18 8 5 9
14 2 3 6 -25 11 -27 4 -51 4 -53 0 -2 -5 -50 -7 -107 -4 -61 2 -105 0 -105 -5
0 -8 -48 -4 -120 11 -14 3 -38 1 -55 -4z m426 -16 c13 -16 12 -17 -3 -4 -17
13 -22 21 -14 21 2 0 10 -8 17 -17z m746 11 c-3 -3 -12 -4 -19 -1 -8 3 -5 6 6
6 11 1 17 -2 13 -5z m-457 -19 c-10 -12 -10 -15 4 -15 9 0 16 5 16 11 0 8 4 8
13 1 13 -11 67 -14 216 -12 41 0 79 -4 87 -11 7 -6 18 -8 23 -4 7 4 8 -1 4
-12 -5 -14 0 -13 22 7 16 14 25 19 20 11 -6 -10 -2 -12 15 -6 16 5 21 4 18 -6
-3 -8 -11 -14 -19 -13 -8 0 -23 -9 -33 -19 -19 -20 -19 -20 15 -15 42 7 59 1
59 -19 0 -9 -6 -13 -13 -10 -8 3 -20 1 -28 -4 -10 -6 -1 -9 26 -9 22 0 47 -5
55 -10 12 -7 10 -11 -10 -19 -24 -9 -23 -10 10 -11 37 -1 88 -18 60 -19 -27
-2 12 -21 43 -21 29 0 39 -20 10 -21 -29 -1 16 -17 50 -18 29 -1 38 -20 10
-23 -10 -1 -70 -2 -133 -3 -95 -2 -193 -6 -335 -16 -11 -1 -47 2 -80 5 -33 4
-73 3 -89 -2 -17 -4 -55 -4 -88 1 -37 6 -75 6 -101 1 -24 -6 -64 -6 -92 -2
-29 5 -73 4 -105 -2 -31 -6 -79 -7 -110 -2 -30 4 -80 3 -110 -2 -59 -10 -150
-1 -150 15 0 5 10 9 22 9 30 0 10 18 -25 22 -34 4 -37 21 -5 29 17 4 9 8 -29
13 -52 8 -74 26 -31 26 31 0 19 7 -25 14 -29 5 -36 3 -31 -6 5 -9 3 -9 -9 1
-9 7 -17 19 -17 25 0 7 3 8 8 0 5 -7 15 -6 32 4 l25 13 -26 -4 c-15 -2 -38 2
-50 9 l-24 13 23 1 c14 0 21 4 16 11 -3 6 -18 9 -31 6 -19 -3 -27 0 -30 13 -3
10 -23 26 -44 36 -45 20 -64 39 -24 24 17 -6 33 -7 44 0 19 10 73 9 81 -1 8
-10 103 -21 96 -11 -3 5 40 7 104 5 61 -2 110 0 110 5 0 5 24 5 53 1 28 -3 54
-5 56 -3 2 2 -1 4 -7 4 -7 0 -12 4 -12 8 0 4 9 8 19 8 11 0 17 -4 15 -8 -10
-16 22 -18 74 -5 28 8 52 11 52 7 0 -14 94 -18 137 -5 24 7 43 10 43 5 0 -4
23 -10 51 -14 45 -6 53 -4 66 13 8 12 17 21 20 21 3 0 0 -7 -7 -15z m395 -8
c-11 -6 -24 -5 -39 2 -19 9 -18 10 8 4 20 -4 27 -3 22 5 -5 8 -1 10 10 5 15
-5 15 -7 -1 -16z m-1439 -11 c1 -9 -5 -12 -20 -8 -18 5 -18 7 -3 10 10 2 14 8
11 15 -4 7 -3 8 1 4 5 -4 10 -14 11 -21z m1514 5 c0 -17 -18 -21 -24 -6 -3 9
0 15 9 15 8 0 15 -4 15 -9z m-1580 -5 c0 -3 -4 -8 -10 -11 -5 -3 -10 -1 -10 4
0 6 5 11 10 11 6 0 10 -2 10 -4z m155 -56 c-3 -5 -11 -10 -16 -10 -6 0 -7 5
-4 10 3 6 11 10 16 10 6 0 7 -4 4 -10z m-68 -16 c-3 -3 -12 -4 -19 -1 -8 3 -5
6 6 6 11 1 17 -2 13 -5z m109 -39 c-3 -9 -10 -13 -16 -10 -6 4 -5 11 3 20 15
16 22 11 13 -10z m29 -5 c3 -5 1 -10 -4 -10 -6 0 -11 5 -11 10 0 6 2 10 4 10
3 0 8 -4 11 -10z m-70 -39 c-3 -6 -14 -10 -23 -10 -15 1 -15 2 1 6 9 2 17 9
17 15 0 6 3 9 6 5 3 -3 3 -10 -1 -16z m50 9 c-3 -5 -12 -10 -18 -10 -7 0 -6 4
3 10 19 12 23 12 15 0z m80 -140 c13 -6 15 -9 5 -9 -8 0 -22 4 -30 9 -18 12
-2 12 25 0z"/>
<path d="M9630 740 c-14 -4 -63 -6 -110 -4 -79 3 -82 1 -22 -12 12 -2 22 -9
22 -15 0 -6 -7 -8 -16 -5 -8 3 -12 2 -9 -4 3 -6 16 -10 29 -10 32 0 39 -11 18
-27 -15 -12 -12 -13 25 -9 46 5 54 -9 18 -31 -18 -11 -16 -12 20 -14 22 -1 47
-1 55 1 8 1 114 4 235 6 121 2 227 4 235 5 8 1 48 -1 88 -6 54 -5 72 -4 72 5
0 8 -9 11 -25 8 -14 -3 -28 -1 -31 4 -3 5 -12 7 -19 4 -7 -2 -16 2 -19 10 -4
11 -1 14 13 9 11 -3 22 -1 26 5 4 6 -4 10 -19 10 -31 0 -78 18 -87 32 -4 7
-14 8 -25 3 -27 -12 -77 -13 -91 -2 -7 5 -19 1 -32 -12 -12 -12 -21 -19 -21
-16 0 3 -12 -1 -27 -8 -16 -7 -41 -12 -58 -11 -75 7 -99 13 -114 29 -15 15
-15 16 2 9 22 -8 70 4 62 16 -3 6 -1 10 4 10 6 0 11 -4 11 -8 0 -4 8 -9 18
-10 9 -1 37 -4 61 -7 28 -3 47 -1 52 6 3 6 28 11 55 12 27 0 59 6 73 13 24 12
23 13 -14 20 -20 3 -52 2 -69 -3 -19 -6 -56 -7 -88 -3 -61 9 -122 4 -152 -12
-11 -6 -16 -6 -12 0 11 18 -87 27 -134 12z m260 -8 c0 -13 -12 -22 -22 -16
-10 6 -1 24 13 24 5 0 9 -4 9 -8z m50 -12 c0 -5 -2 -10 -4 -10 -3 0 -8 5 -11
10 -3 6 -1 10 4 10 6 0 11 -4 11 -10z m80 -66 c0 -2 -9 0 -20 6 -11 6 -20 13
-20 16 0 2 9 0 20 -6 11 -6 20 -13 20 -16z m160 -14 c0 -5 -7 -7 -15 -4 -8 4
-15 8 -15 10 0 2 7 4 15 4 8 0 15 -4 15 -10z"/>
<path d="M10148 703 c7 -3 16 -2 19 1 4 3 -2 6 -13 5 -11 0 -14 -3 -6 -6z"/>
<path d="M5908 804 c-7 -6 -148 -9 -1035 -17 -149 -1 -275 -5 -279 -9 -4 -5 4
-8 19 -8 14 0 29 -4 32 -10 3 -6 -5 -10 -19 -10 -14 0 -28 -5 -31 -10 -4 -6 6
-10 22 -10 22 0 25 -2 13 -10 -8 -5 -26 -10 -40 -11 -22 -1 -21 -2 10 -12 l34
-11 -44 -12 c-35 -9 -39 -12 -18 -13 33 -1 48 -21 16 -21 -13 0 -30 -5 -38
-10 -11 -7 -7 -10 18 -10 20 0 31 -4 27 -10 -3 -5 -17 -10 -30 -10 -13 0 -27
-5 -30 -10 -4 -6 5 -10 19 -10 14 0 26 -4 26 -10 0 -5 -13 -10 -29 -10 -17 0
-33 -4 -36 -10 -4 -6 7 -10 25 -10 18 0 29 -4 25 -10 -3 -5 -16 -10 -29 -10
-35 0 -39 -13 -9 -26 l28 -12 -45 -8 -45 -7 40 -12 40 -12 -45 -8 c-35 -7 -40
-10 -25 -16 30 -11 88 -10 124 2 23 8 44 8 80 -1 38 -9 63 -9 105 0 41 8 65 8
97 0 32 -9 57 -9 104 1 47 9 73 9 107 1 34 -9 55 -8 95 2 39 10 62 11 98 3 34
-8 62 -8 103 1 39 7 73 8 107 1 32 -6 68 -6 102 1 33 6 72 6 101 0 30 -5 65
-5 93 1 24 6 74 7 110 4 38 -4 83 -2 107 4 29 8 54 8 89 0 36 -8 63 -7 105 2
44 9 68 9 104 0 48 -12 128 -6 119 9 -2 4 -18 10 -35 14 -36 7 -31 26 6 26 13
0 24 5 24 10 0 6 -16 10 -35 10 -19 0 -35 5 -35 10 0 6 9 10 21 10 27 0 14 20
-14 21 -16 1 -12 4 13 12 27 8 30 11 15 14 -47 9 -50 14 -20 27 l30 12 -35 8
-35 7 30 14 30 13 -32 1 c-40 1 -44 21 -5 22 l27 1 -28 12 c-30 13 -26 26 7
27 15 0 12 4 -12 13 -35 12 -34 25 2 27 14 1 9 4 -14 12 -30 9 -32 11 -12 15
12 2 22 7 22 12 0 6 -189 5 -310 -2 -8 0 -37 2 -65 6 -27 5 -53 4 -57 0z
m-623 -58 c77 1 156 2 175 4 19 1 62 2 95 2 33 0 80 0 105 1 25 0 59 -1 75 -2
17 -1 99 0 184 2 84 3 165 1 180 -3 l26 -7 -35 -11 c-32 -9 -33 -10 -8 -11 38
-1 43 -17 11 -29 l-28 -10 26 -1 c36 -1 43 -13 17 -28 l-23 -12 23 -1 c12 0
22 -4 22 -10 0 -5 -9 -10 -20 -10 -11 0 -20 -4 -20 -10 0 -5 12 -10 28 -10 21
0 24 -2 12 -10 -8 -5 -26 -10 -40 -10 -20 0 -22 -2 -10 -10 8 -5 25 -10 38
-10 12 0 22 -4 22 -10 0 -5 -11 -10 -24 -10 -14 0 -28 -4 -31 -10 -4 -6 7 -10
24 -10 17 0 31 -4 31 -8 0 -15 -94 -28 -135 -19 -26 6 -62 4 -102 -3 -48 -9
-74 -9 -112 0 -29 7 -60 8 -73 4 -20 -8 -204 -15 -283 -12 -42 2 -134 2 -170
0 -16 -1 -95 0 -175 2 -80 1 -165 -1 -190 -6 -47 -10 -140 -2 -140 12 0 4 19
11 43 15 33 7 37 9 17 12 -52 8 -55 16 -10 28 33 10 38 13 19 14 -42 2 -43 15
-2 28 32 9 34 12 12 12 -42 1 -43 14 -2 27 l38 12 -32 1 c-41 1 -44 21 -4 21
17 0 33 5 36 10 3 6 -5 10 -19 10 -14 0 -28 5 -31 10 -3 6 4 10 17 10 13 0 30
5 38 10 12 7 8 10 -14 10 -23 0 -27 3 -18 12 7 7 54 12 126 13 64 1 119 4 123
8 3 4 16 4 27 0 12 -4 84 -7 161 -7z"/>
<path d="M5705 691 c-16 -4 -145 -6 -285 -6 -140 1 -266 -2 -280 -6 -23 -7
-23 -7 8 -8 17 -1 32 -5 32 -10 0 -5 -15 -12 -32 -16 l-33 -8 28 -4 c37 -6 34
-19 -5 -28 l-33 -8 28 -4 c38 -6 34 -19 -10 -29 l-38 -7 38 -7 c21 -4 61 -2
89 5 36 8 65 8 95 1 30 -6 58 -6 93 2 37 9 64 9 100 1 35 -8 65 -7 103 1 38 7
67 8 100 1 48 -11 110 -5 101 10 -3 5 -16 9 -30 9 -34 0 -20 20 14 21 l27 1
-30 13 -30 14 35 7 34 7 -39 12 -40 12 40 8 40 9 -30 7 c-38 9 -53 9 -90 0z
m-161 -61 c30 -11 -67 -32 -112 -25 -65 11 -69 18 -17 30 48 12 87 10 129 -5z"/>
<path d="M10034 410 c-24 -9 -224 -22 -299 -19 -27 2 -68 2 -90 1 -22 -1 -71
-2 -110 -1 -89 1 -135 0 -210 -3 -33 -2 -67 1 -76 6 -11 6 -30 6 -50 0 l-34
-10 48 -8 c55 -8 61 -22 15 -34 -32 -9 -31 -9 25 -17 62 -8 72 -19 30 -30 -26
-7 -23 -9 27 -20 51 -11 52 -15 10 -28 -8 -2 10 -9 40 -14 51 -9 53 -11 30
-20 l-25 -11 30 -7 c72 -17 73 -17 41 -30 l-28 -12 23 -6 c13 -4 36 -7 50 -7
40 0 44 -13 7 -26 -24 -9 -27 -13 -13 -14 11 -1 38 -7 60 -14 l40 -13 -30 -13
-30 -13 30 -7 c17 -4 43 -11 58 -14 15 -4 25 -11 22 -17 -4 -6 36 -9 117 -9
169 2 253 28 145 45 -65 11 -75 20 -43 37 l28 14 -58 13 -58 13 24 18 c23 17
23 17 -31 24 l-54 7 24 18 24 19 -44 7 c-60 10 -67 16 -33 30 29 12 28 12 -23
19 -29 4 -53 11 -53 16 0 6 7 10 16 10 8 0 12 5 9 10 -3 6 -22 10 -41 10 -43
0 -44 14 0 27 21 7 54 7 94 1 46 -7 72 -6 109 5 37 11 63 12 108 5 43 -7 75
-6 112 3 39 9 69 9 116 2 45 -8 77 -8 111 0 35 8 63 7 109 -2 48 -9 74 -10
108 -1 36 9 58 8 113 -4 53 -13 77 -14 108 -6 30 9 55 7 113 -5 60 -14 77 -14
97 -4 13 7 50 12 86 10 l63 -2 -3 28 c-3 25 -8 29 -56 36 -33 6 -64 5 -83 -2
-17 -6 -39 -7 -52 -2 -42 16 -125 22 -161 12 -26 -7 -54 -6 -92 2 -45 9 -57 9
-63 -2 -7 -11 -9 -11 -13 0 -4 11 -12 11 -42 2 -28 -9 -53 -9 -97 0 -45 8 -75
8 -114 0 -30 -7 -65 -10 -77 -8 -75 11 -115 13 -134 5z"/>
<path d="M7413 365 c-32 -9 -54 -10 -90 -3 -32 7 -68 7 -112 0 -76 -12 -165
-11 -148 1 7 5 -4 5 -23 1 -36 -8 -98 -10 -183 -4 -60 3 -84 -15 -33 -24 45
-9 47 -26 4 -27 -34 0 -31 -4 27 -25 17 -6 14 -9 -20 -19 l-40 -12 43 -7 c50
-9 54 -22 10 -32 l-33 -8 43 -8 c48 -10 48 -22 0 -33 l-33 -7 31 -8 c62 -14
69 -39 11 -41 -30 0 -29 -2 18 -19 53 -19 53 -20 -15 -42 -8 -3 3 -8 25 -12
52 -10 63 -18 39 -27 -10 -4 53 -7 141 -7 88 1 148 3 133 5 -38 6 -35 20 5 29
l32 8 -37 10 c-51 15 -57 25 -20 32 44 9 40 20 -10 29 l-43 7 38 18 39 17 -39
8 c-58 11 -62 18 -18 31 l40 12 -47 12 c-53 14 -55 24 -6 35 l33 8 -42 10
c-24 5 -43 13 -43 18 0 16 88 26 151 17 45 -7 74 -7 102 2 30 9 55 9 106 -1
48 -8 81 -9 115 -1 33 7 64 6 104 -2 42 -8 70 -8 107 -1 37 8 65 8 108 -1 47
-9 67 -9 104 2 38 11 57 12 104 2 45 -9 68 -9 111 1 43 10 66 11 110 2 43 -9
67 -9 100 0 41 11 126 7 164 -8 14 -5 11 -9 -17 -19 l-34 -12 30 -7 c17 -3 39
-10 50 -15 18 -7 18 -8 -7 -15 -35 -9 -27 -25 12 -25 15 0 37 -3 47 -7 14 -6
10 -10 -22 -19 l-40 -12 30 -6 c17 -4 44 -11 60 -15 l30 -9 -33 -7 c-45 -10
-50 -25 -10 -26 18 -1 44 -4 58 -9 l25 -7 -30 -14 -30 -13 40 -4 c51 -4 67
-19 30 -28 -58 -15 9 -28 158 -32 127 -4 152 -2 185 14 l37 18 -48 7 c-63 10
-67 15 -26 32 l34 14 -57 7 c-54 7 -82 26 -38 26 11 0 20 5 20 10 0 6 -17 10
-38 10 -50 0 -60 11 -25 25 28 12 27 12 -19 19 -54 8 -62 20 -20 31 26 8 26 8
-13 17 -68 14 -73 19 -35 33 l35 12 -53 7 c-60 8 -66 19 -19 34 l32 10 -30 1
c-41 2 -75 12 -75 22 0 5 10 9 23 9 21 1 21 1 3 12 -12 7 -41 8 -80 3 -33 -4
-79 -6 -101 -4 -22 2 -61 2 -87 2 -45 -2 -75 -2 -210 -1 -29 0 -71 -1 -93 -2
-22 -1 -71 -2 -110 -1 -38 0 -89 0 -112 0 -24 0 -70 0 -103 0 -33 0 -81 0
-107 -1 -27 0 -73 0 -103 0 -30 0 -80 0 -110 -1 -30 -1 -71 1 -90 5 -21 4 -52
1 -77 -7z m-523 -45 c0 -5 -4 -10 -10 -10 -5 0 -10 5 -10 10 0 6 5 10 10 10 6
0 10 -4 10 -10z"/>
<path d="M9976 261 c-3 -5 16 -12 44 -16 59 -8 71 -20 33 -33 -28 -9 -28 -9
12 -16 61 -11 76 -17 70 -27 -4 -5 -15 -9 -26 -9 -33 0 -13 -16 38 -30 68 -18
71 -22 32 -36 l-34 -11 37 -8 c20 -4 61 -4 90 0 29 4 100 8 158 9 58 0 122 5
142 10 27 6 58 3 108 -9 59 -14 78 -15 113 -6 34 10 56 9 116 -4 71 -15 111
-13 111 5 0 4 -17 11 -38 15 -20 3 -44 10 -52 15 -12 8 -11 11 8 16 36 10 26
20 -40 36 -51 13 -59 17 -40 23 38 12 25 23 -38 30 -55 6 -83 24 -42 26 9 1
-1 5 -23 11 -27 6 -58 5 -96 -2 -47 -10 -65 -9 -118 6 -54 15 -70 15 -110 5
-36 -9 -64 -9 -117 -1 -51 8 -80 8 -110 0 -30 -9 -52 -9 -80 -1 -47 13 -141
14 -148 2z m617 -90 c4 -4 -11 -13 -33 -20 -37 -11 -91 -9 -160 5 l-25 6 30
13 c31 14 171 11 188 -4z"/>
<path d="M8149 226 c-34 -10 -62 -10 -108 -3 -44 7 -77 7 -111 -1 -35 -8 -64
-8 -109 0 -48 9 -73 9 -112 -1 -39 -10 -63 -11 -113 -1 -42 8 -74 8 -97 2 -35
-10 -33 -12 31 -30 27 -7 31 -11 18 -16 -10 -3 -26 -9 -35 -13 -13 -4 -6 -9
25 -16 50 -12 54 -23 10 -33 l-33 -7 50 -12 50 -12 -34 -15 -34 -16 41 -7 c24
-4 65 -1 97 6 43 9 70 10 123 0 55 -9 75 -9 113 3 40 12 55 12 114 0 59 -12
75 -13 117 0 42 12 56 12 108 -1 58 -15 130 -11 130 6 0 5 -18 11 -40 15 -48
7 -52 24 -9 33 38 7 20 23 -28 23 -40 0 -52 17 -18 26 34 9 24 20 -27 29 l-43
7 29 13 c53 23 -34 40 -105 21z m-171 -72 c59 -9 59 -18 2 -33 -36 -9 -63 -10
-106 -2 -31 6 -59 13 -61 15 -8 8 82 35 102 31 11 -2 39 -7 63 -11z"/>
</g>
</svg>
